<svg xmlns="http://www.w3.org/2000/svg" id="_top" stroke-width="0" xmlns:xlink="http://www.w3.org/1999/xlink" stroke-linecap="round" stroke-linejoin="round" viewBox="153416 -98044 33528 23368"><defs><path id="tool-D11-pad-1023" d="M-625-300H625v600H-625z"/><path id="tool-D12-pad-1024" d="M-863.6-1016H863.6v2032H-863.6z"/><rect id="tool-D13-pad-1025" width="1727.2" height="2032" x="-863.6" y="-1016" rx="863.6" ry="863.6"/><path id="tool-D14-pad-1026" d="M-450-600h900V600h-900z"/><circle id="tool-D15-pad-1027" r="250"/><path id="tool-D16-pad-1028" d="M-600-450H600v900H-600z"/><path id="tool-D17-pad-1029" d="M-350-125h700v250h-700z"/><path id="tool-D18-pad-1030" d="M-125-350h250v700h-250z"/><path id="tool-D19-pad-1031" d="M-862.5-862.5h1725v1725h-1725z"/><path id="tool-D20-pad-1032" d="M-600-375H600v750H-600z"/><path id="tool-D21-pad-1033" d="M-940-225H940v450H-940z"/><path id="tool-D22-pad-1034" d="M-1050-737.5h2100v1475h-2100z"/><path id="tool-D23-pad-1035" d="M-950-1187.5H950v2375H-950z"/><path id="tool-D24-pad-1036" d="M-950-587.5H950v1175H-950z"/><path id="tool-D25-pad-1037" d="M-650-950H650V950H-650z"/><path id="tool-D26-pad-1038" d="M-375-600h750V600h-750z"/><path id="tool-D27-pad-1039" d="M-1000-1000h2000v2000h-2000z"/><path id="tool-D28-pad-1040" d="M-175-90h350V90h-350z"/><path id="tool-D29-pad-1041" d="M-150-750h300V750h-300z"/><path id="tool-D30-pad-1042" d="M-525-325H525v650H-525z"/><path id="tool-D31-pad-1043" d="M-800.1-1099.82H800.1v2199.64H-800.1z"/><circle id="tool-D32-pad-1044" r="292.1"/><circle id="tool-D33-pad-1045" r="254"/><path id="tool-D11-pad-1051" d="M-701.2-376.2H701.2v752.4H-701.2z"/><path id="tool-D12-pad-1052" d="M-939.8-1092.2H939.8v2184.4H-939.8z"/><rect id="tool-D13-pad-1053" width="1879.6" height="2184.4" x="-939.8" y="-1092.2" rx="939.8" ry="939.8"/><path id="tool-D14-pad-1054" d="M-526.2-676.2H526.2V676.2H-526.2z"/><circle id="tool-D15-pad-1055" r="1250"/><path id="tool-D16-pad-1056" d="M-676.2-526.2H676.2V526.2H-676.2z"/><path id="tool-D17-pad-1057" d="M-426.2-201.2h852.4v402.4h-852.4z"/><path id="tool-D18-pad-1058" d="M-201.2-426.2h402.4v852.4h-402.4z"/><path id="tool-D19-pad-1059" d="M-938.7-938.7H938.7V938.7H-938.7z"/><path id="tool-D20-pad-1060" d="M-676.2-451.2H676.2v902.4H-676.2z"/><path id="tool-D21-pad-1061" d="M-1016.2-301.2h2032.4v602.4h-2032.4z"/><path id="tool-D22-pad-1062" d="M-1126.2-813.7h2252.4V813.7h-2252.4z"/><path id="tool-D23-pad-1063" d="M-1026.2-1263.7h2052.4v2527.4h-2052.4z"/><path id="tool-D24-pad-1064" d="M-1026.2-663.7h2052.4V663.7h-2052.4z"/><path id="tool-D25-pad-1065" d="M-726.2-1026.2H726.2v2052.4H-726.2z"/><path id="tool-D26-pad-1066" d="M-451.2-676.2h902.4V676.2h-902.4z"/><path id="tool-D27-pad-1067" d="M-1076.2-1076.2h2152.4v2152.4h-2152.4z"/><path id="tool-D28-pad-1068" d="M-251.2-166.2h502.4v332.4h-502.4z"/><path id="tool-D29-pad-1069" d="M-226.2-826.2h452.4V826.2h-452.4z"/><path id="tool-D30-pad-1070" d="M-601.2-401.2H601.2v802.4H-601.2z"/><path id="tool-D31-pad-1071" d="M-876.3-1176.02H876.3v2352.04H-876.3z"/><circle id="tool-T1-pad-1075" r="165"/><circle id="tool-T2-pad-1076" r="500"/><circle id="tool-T3-pad-1077" r="508"/><g id="_top-cu" fill="currentColor" stroke="currentColor"><use x="163548" y="-84648" xlink:href="#tool-D11-pad-1023"/><use x="163548" y="-85598" xlink:href="#tool-D11-pad-1023"/><use x="163548" y="-86548" xlink:href="#tool-D11-pad-1023"/><use x="160048" y="-86548" xlink:href="#tool-D11-pad-1023"/><use x="160048" y="-85598" xlink:href="#tool-D11-pad-1023"/><use x="160048" y="-84648" xlink:href="#tool-D11-pad-1023"/><use x="185420" y="-76200" xlink:href="#tool-D12-pad-1024"/><use x="182880" y="-76200" xlink:href="#tool-D13-pad-1025"/><use x="180340" y="-76200" xlink:href="#tool-D13-pad-1025"/><use x="177800" y="-76200" xlink:href="#tool-D13-pad-1025"/><use x="175260" y="-76200" xlink:href="#tool-D13-pad-1025"/><use x="172720" y="-76200" xlink:href="#tool-D13-pad-1025"/><use x="170180" y="-76200" xlink:href="#tool-D13-pad-1025"/><use x="167640" y="-76200" xlink:href="#tool-D13-pad-1025"/><use x="165100" y="-76200" xlink:href="#tool-D13-pad-1025"/><use x="162560" y="-76200" xlink:href="#tool-D13-pad-1025"/><use x="160020" y="-76200" xlink:href="#tool-D13-pad-1025"/><use x="157480" y="-76200" xlink:href="#tool-D13-pad-1025"/><use x="154940" y="-76200" xlink:href="#tool-D13-pad-1025"/><use x="160909" y="-83015" xlink:href="#tool-D14-pad-1026"/><use x="160909" y="-80815" xlink:href="#tool-D14-pad-1026"/><use x="182753" y="-78867" xlink:href="#tool-D15-pad-1027"/><use x="154602" y="-80645" xlink:href="#tool-D16-pad-1028"/><use x="156802" y="-80645" xlink:href="#tool-D16-pad-1028"/><use x="176670.5" y="-87501.5" xlink:href="#tool-D17-pad-1029"/><use x="176670.5" y="-87001.5" xlink:href="#tool-D17-pad-1029"/><use x="176670.5" y="-86501.5" xlink:href="#tool-D17-pad-1029"/><use x="176670.5" y="-86001.5" xlink:href="#tool-D17-pad-1029"/><use x="176670.5" y="-85501.5" xlink:href="#tool-D17-pad-1029"/><use x="176670.5" y="-85001.5" xlink:href="#tool-D17-pad-1029"/><use x="176670.5" y="-84501.5" xlink:href="#tool-D17-pad-1029"/><use x="176670.5" y="-84001.5" xlink:href="#tool-D17-pad-1029"/><use x="176020.5" y="-83351.5" xlink:href="#tool-D18-pad-1030"/><use x="175520.5" y="-83351.5" xlink:href="#tool-D18-pad-1030"/><use x="175020.5" y="-83351.5" xlink:href="#tool-D18-pad-1030"/><use x="174520.5" y="-83351.5" xlink:href="#tool-D18-pad-1030"/><use x="174020.5" y="-83351.5" xlink:href="#tool-D18-pad-1030"/><use x="173520.5" y="-83351.5" xlink:href="#tool-D18-pad-1030"/><use x="173020.5" y="-83351.5" xlink:href="#tool-D18-pad-1030"/><use x="172520.5" y="-83351.5" xlink:href="#tool-D18-pad-1030"/><use x="171870.5" y="-84001.5" xlink:href="#tool-D17-pad-1029"/><use x="171870.5" y="-84501.5" xlink:href="#tool-D17-pad-1029"/><use x="171870.5" y="-85001.5" xlink:href="#tool-D17-pad-1029"/><use x="171870.5" y="-85501.5" xlink:href="#tool-D17-pad-1029"/><use x="171870.5" y="-86001.5" xlink:href="#tool-D17-pad-1029"/><use x="171870.5" y="-86501.5" xlink:href="#tool-D17-pad-1029"/><use x="171870.5" y="-87001.5" xlink:href="#tool-D17-pad-1029"/><use x="171870.5" y="-87501.5" xlink:href="#tool-D17-pad-1029"/><use x="172520.5" y="-88151.5" xlink:href="#tool-D18-pad-1030"/><use x="173020.5" y="-88151.5" xlink:href="#tool-D18-pad-1030"/><use x="173520.5" y="-88151.5" xlink:href="#tool-D18-pad-1030"/><use x="174020.5" y="-88151.5" xlink:href="#tool-D18-pad-1030"/><use x="174520.5" y="-88151.5" xlink:href="#tool-D18-pad-1030"/><use x="175020.5" y="-88151.5" xlink:href="#tool-D18-pad-1030"/><use x="175520.5" y="-88151.5" xlink:href="#tool-D18-pad-1030"/><use x="176020.5" y="-88151.5" xlink:href="#tool-D18-pad-1030"/><use x="173408" y="-84889" xlink:href="#tool-D19-pad-1031"/><use x="173408" y="-86614" xlink:href="#tool-D19-pad-1031"/><use x="175133" y="-84889" xlink:href="#tool-D19-pad-1031"/><use x="175133" y="-86614" xlink:href="#tool-D19-pad-1031"/><use x="175194" y="-90551" xlink:href="#tool-D20-pad-1032"/><use x="173294" y="-90551" xlink:href="#tool-D20-pad-1032"/><path d="M159817-89467h3200v-1800h-3200v1800zM159817-91867h3200v-1800h-3200v1800z"/><use x="157723" y="-87660" xlink:href="#tool-D21-pad-1033"/><use x="157723" y="-87010" xlink:href="#tool-D21-pad-1033"/><use x="157723" y="-85060" xlink:href="#tool-D21-pad-1033"/><use x="157723" y="-85710" xlink:href="#tool-D21-pad-1033"/><use x="157723" y="-86360" xlink:href="#tool-D21-pad-1033"/><use x="157113" y="-88822.5" xlink:href="#tool-D22-pad-1034"/><use x="157113" y="-83897.5" xlink:href="#tool-D22-pad-1034"/><use x="154813" y="-89272.5" xlink:href="#tool-D23-pad-1035"/><use x="154813" y="-83447.5" xlink:href="#tool-D23-pad-1035"/><use x="154813" y="-85522.5" xlink:href="#tool-D24-pad-1036"/><use x="154813" y="-87197.5" xlink:href="#tool-D24-pad-1036"/><use x="179942" y="-85649" xlink:href="#tool-D25-pad-1037"/><use x="185442" y="-85649" xlink:href="#tool-D25-pad-1037"/><use x="185442" y="-88849" xlink:href="#tool-D25-pad-1037"/><use x="179942" y="-88849" xlink:href="#tool-D25-pad-1037"/><use x="158811" y="-82169" xlink:href="#tool-D20-pad-1032"/><use x="156911" y="-82169" xlink:href="#tool-D20-pad-1032"/><use x="181742" y="-89535" xlink:href="#tool-D20-pad-1032"/><use x="183642" y="-89535" xlink:href="#tool-D20-pad-1032"/><use x="181742" y="-84963" xlink:href="#tool-D20-pad-1032"/><use x="183642" y="-84963" xlink:href="#tool-D20-pad-1032"/><use x="177988" y="-81915" xlink:href="#tool-D20-pad-1032"/><use x="176088" y="-81915" xlink:href="#tool-D20-pad-1032"/><use x="175194" y="-92075" xlink:href="#tool-D20-pad-1032"/><use x="173294" y="-92075" xlink:href="#tool-D20-pad-1032"/><use x="173294" y="-93599" xlink:href="#tool-D20-pad-1032"/><use x="175194" y="-93599" xlink:href="#tool-D20-pad-1032"/><use x="154940" y="-96520" xlink:href="#tool-D12-pad-1024"/><use x="157480" y="-96520" xlink:href="#tool-D13-pad-1025"/><use x="160020" y="-96520" xlink:href="#tool-D13-pad-1025"/><use x="162560" y="-96520" xlink:href="#tool-D13-pad-1025"/><use x="165100" y="-96520" xlink:href="#tool-D13-pad-1025"/><use x="167640" y="-96520" xlink:href="#tool-D13-pad-1025"/><use x="170180" y="-96520" xlink:href="#tool-D13-pad-1025"/><use x="172720" y="-96520" xlink:href="#tool-D13-pad-1025"/><use x="175260" y="-96520" xlink:href="#tool-D13-pad-1025"/><use x="177800" y="-96520" xlink:href="#tool-D13-pad-1025"/><use x="180340" y="-96520" xlink:href="#tool-D13-pad-1025"/><use x="182880" y="-96520" xlink:href="#tool-D13-pad-1025"/><use x="185420" y="-96520" xlink:href="#tool-D13-pad-1025"/><use x="170645" y="-89789" xlink:href="#tool-D16-pad-1028"/><use x="168445" y="-89789" xlink:href="#tool-D16-pad-1028"/><use x="177038" y="-93683" xlink:href="#tool-D14-pad-1026"/><use x="177038" y="-91483" xlink:href="#tool-D14-pad-1026"/><use x="178689" y="-93683" xlink:href="#tool-D14-pad-1026"/><use x="178689" y="-91483" xlink:href="#tool-D14-pad-1026"/><use x="158750" y="-90678" xlink:href="#tool-D26-pad-1038"/><use x="158750" y="-92578" xlink:href="#tool-D26-pad-1038"/><use x="154749.5" y="-91633" xlink:href="#tool-D26-pad-1038"/><use x="154749.5" y="-93533" xlink:href="#tool-D26-pad-1038"/><use x="168445" y="-91440" xlink:href="#tool-D16-pad-1028"/><use x="170645" y="-91440" xlink:href="#tool-D16-pad-1028"/><use x="185420" y="-78740" xlink:href="#tool-D27-pad-1039"/><use x="157243" y="-91967" xlink:href="#tool-D28-pad-1040"/><use x="157243" y="-91567" xlink:href="#tool-D28-pad-1040"/><use x="157243" y="-91167" xlink:href="#tool-D28-pad-1040"/><use x="156193" y="-91167" xlink:href="#tool-D28-pad-1040"/><use x="156193" y="-91567" xlink:href="#tool-D28-pad-1040"/><use x="156193" y="-91967" xlink:href="#tool-D28-pad-1040"/><use x="156718" y="-91567" xlink:href="#tool-D29-pad-1041"/><use x="156718" y="-94107" xlink:href="#tool-D15-pad-1027"/><use x="156718" y="-78867" xlink:href="#tool-D15-pad-1027"/><use x="185734" y="-91508" xlink:href="#tool-D30-pad-1042"/><use x="180534" y="-91508" xlink:href="#tool-D30-pad-1042"/><use x="180534" y="-93658" xlink:href="#tool-D30-pad-1042"/><use x="185734" y="-93658" xlink:href="#tool-D30-pad-1042"/><use x="163576" y="-80032.86" xlink:href="#tool-D31-pad-1043"/><use x="163576" y="-83035.14" xlink:href="#tool-D31-pad-1043"/><use x="165354" y="-92433.14" xlink:href="#tool-D31-pad-1043"/><use x="165354" y="-89430.86" xlink:href="#tool-D31-pad-1043"/><use x="156718" y="-90551" xlink:href="#tool-D32-pad-1044"/><use x="156718" y="-92519.5" xlink:href="#tool-D32-pad-1044"/><use x="159131" y="-87630" xlink:href="#tool-D32-pad-1044"/><use x="156210" y="-87630" xlink:href="#tool-D32-pad-1044"/><use x="175133" y="-86614" xlink:href="#tool-D32-pad-1044"/><use x="175133" y="-84889" xlink:href="#tool-D32-pad-1044"/><use x="173408" y="-84889" xlink:href="#tool-D32-pad-1044"/><use x="173408" y="-86614" xlink:href="#tool-D32-pad-1044"/><use x="173461.69" y="-89408" xlink:href="#tool-D33-pad-1045"/><use x="185775.6" y="-93675.2" xlink:href="#tool-D33-pad-1045"/><use x="182067.2" y="-93675.2" xlink:href="#tool-D33-pad-1045"/><use x="176657.611" y="-90476.598" xlink:href="#tool-D33-pad-1045"/><use x="177318.014" y="-90476.598" xlink:href="#tool-D33-pad-1045"/><use x="170538.14" y="-92433.14" xlink:href="#tool-D32-pad-1044"/><use x="175110.14" y="-92433.14" xlink:href="#tool-D32-pad-1044"/><use x="164465" y="-80073.5" xlink:href="#tool-D32-pad-1044"/><use x="178054" y="-81407" xlink:href="#tool-D32-pad-1044"/><use x="160909" y="-83629.5" xlink:href="#tool-D32-pad-1044"/><use x="161417" y="-89344.5" xlink:href="#tool-D32-pad-1044"/><use x="156337" y="-85201.2" xlink:href="#tool-D32-pad-1044"/><use x="154813" y="-90932" xlink:href="#tool-D32-pad-1044"/><path fill="none" stroke-width="304.8" d="M162118-84648l-66 66m14036 2667l-567.5-567.5m0 0v-869M156718-91567v1016m0-1016v-952.5m1005 4859.5h1378m0 0l30 30m-1408-30h-1483m0 0l-30 30m508-4172v470m0-539.8v539.8m525-635h-360m0 0l-165 165m18476-1797h-376m-1524 3048v-1524m726.5 3923.5v-1673m0 1673v925m1500 3875v-1150m0 0l-387.5-387.5"/><path fill="none" stroke-width="152.4" d="M181742-89535h-1114m0 0l-686 686m-3271.5 1347.5h2224m0 0L179942-88549m0 0v-300m1800 3886h-1114m0 0l-686-686m-3271.5-1352.5h2219m0 0L179942-85949m0 0v300m-2904-8034h1651m-5395 84h-5425.4m5151.9 5447.5v-502.4m-555.101-555.101v-3786.398m555.101 4341.499l-555.101-555.101m0-3786.398L173069-93599m0 0h225m3744 66v-150m0 0h-602.4m0 0l-519.601-519.601m0 0h-1793.398m0 0L173519-93599m0 0h-225m-15571 7889h2213m0 0l112 112m-2325-762h2137m0 0l188-188m13472.5-1603.5v-1197.69m0 0l-58.81-58.81m7072.31-4250h1516m0 0l17.2-17.2m-1533.2 17.2l34.132 34.132M178689-91483v-530m0 0l1645-1645m0 0h200m3657.399 16076.999L185420-76352.4m0 0v152.4m-1228.601-3578.101v2197.1m-415.1-2612.2l415.1 415.1m-1790.037-415.1h1374.937m-5183.236-3808.299l3808.299 3808.299M182880-76352.4v152.4m-1320.81-1473.21L182880-76352.4m-3936.692-1320.81h2615.882m-6538.69-3922.808l3922.808 3922.808m380.692 304.81l1016 1016m0 0v152.4m-1522.948-1168.4H179324m-4803.5-4296.552l4296.552 4296.552M177800-77954.386V-76200m0-152.4v152.4m-3779.5-5533.886l3779.5 3779.5m-2540-2108.934V-76200m0-152.4v152.4m-1739.5-5602.82l1739.5 1739.5m1410.5-3938.18h1922.563m-5572.563 650v6851m0 0l-300.5 300.5m0-152.4v152.4m2300.5-7151.5v1755.482M171196-77368.4l-1016 1016m0 0v152.4m1168.4-1168.4h-152.4m1324.5-1172.1l-1172.1 1172.1m3172.1-5983.1v1686.548M167640-77368.4v1168.4m0-152.4v152.4m0-3796v2627.6m6380.5-5983.1v1617.614M165100-77368.4v1168.4m0-152.4v152.4m0-1917.482v749.082m6384.018-7133.1L165100-78117.482m8420.5-5234.018v1548.68M163576-77368.4l-1016 1016m0 0v152.4m1348.008-1168.4H163576m-2463.79-76.21L160020-76352.4m0 0v152.4m3201.144-1244.61h-2108.934m10165.824-8056.89l-8056.89 8056.89m9299.356-5906.89v4811M157480-76352.4v152.4m1016-1168.4l-1016 1016m1016-3622.814v2606.814m1906.375-4513.189L158496-79975.214m2840.845-1906.375h-934.47m1414.149 479.679l-479.679-479.679m5362.73 479.68l-4883.051-.001m9482.642-4599.59l-4599.591 4599.591M171870.5-84001.5h-225m0 0L167640-79996m-9595.799 584.317v105.078m0 0v1076.182m0-1724.058v647.876m0 1076.182l-785.813 785.813m0 0h-1226.178m0 0L154940-76352.4m0 0v152.4m5336.119-5986.399l-2231.918 2231.918M171870.5-84501.5h-386.482m-7831.808-10773.89L162560-96367.6m0 0v-152.4m2263.152 1244.61h-1170.942m3152.142 1981.2l-1981.2-1981.2m6169.658 1981.2h-4188.458m4669.249 480.791l-480.791-480.791m480.791 2826.589v-2345.798M167868.6-93599l-2768.6-2768.6m0 0v-152.4m6770.5 11518.5h-329.392m0 0l-7633.1 7633.1m7962.492-8133.1h-592.466m592.466-500h-571.334m5358.445-3728.283v-746.815m-1137.111 1883.926l1137.111-1137.111m-15194.51 7543.384h-1186.982M171368.1-86501.5l-4794.781 4794.781m0 0h-4630.538m0 0l-479.68-479.68M171870.5-86501.5h-502.4m5949.914-3449.914v-525.184M176020.5-88653.9l1297.514-1297.514M175260-96367.6v-152.4m-4615 6731h150m0 0l678.601-678.601M172520.5-88151.5v-225m0 0L171108-89789m0 0h-463m4875.5 1637.5v-441.172m500 441.172v-502.4m0 502.4v-225"/><path fill="none" stroke-width="304.8" d="M176098.801-89709.801V-91203.6m0 0l-.001-191.6m939.2-87.8h-754.8m0 0l-184.399 184.399m0 0v95.001M165354-92433.14h5184.14M160020-96520v2356m0 0l1397 1397m13693.14 333.86v274.28m0 0l83.86 83.86m-13777-692h3603.14m0 0l333.86 333.86m10065 358.14h-225m-173.5 3923.5v-480m0 0l1078.301-1078.301m-.001-1685.399l-679.8-679.8m-11843 12042.14h848.36m0 0l40.64-40.64m-3556-741.5h1884.86m0 0l782.14 782.14M178054-81407v-442m0 0l-66-66m-1518-762h531m0 0l762 762m0 0h225m-1967.5-1436.5v225m0 0l449.5 449.5m-15561-952.5v614.5m508-7352v1022.5m-508 6329.5v-358m-2159-7305h2356m0 0l311 311m-4174-800h1018m0 0l489 489m-1507-489v-342.79m17277.5 3358.29v-1726m0 0l673.5-673.5m29 0h225m-17725 5491h-1244.8m0 0l-141.2-141.2m1386 141.2h1244.8m0 0l412 412m0 0h668.2m-3137 2479v1542m0 0l-109 109m311-3379.5v1526.5m0 0l-202 202m202-225l-268 268m268-1771.5h-1850m0 0l-450 450m0-2075v2075m2300-5375h-1850m0 0l-450-450m0 2075v-2075m0 3750v-1675"/><path fill="none" stroke-width="203.2" d="M164757.3-85869.8l-271.8 271.8m3050.668-1450.3l-1178.5 1178.5m0 0H164757.3m-271.8 271.8h-937.5m8322.5-1403.5h-525m0 0l-46.8-46.8m0 0h-3762.532"/><path fill="none" stroke-width="125" d="M163548-85598h325"/><path fill="none" stroke-width="203.2" d="M167367.832-87454.7l-1178.5 1178.5m0 0H164757.3m0 0l-271.8-271.8m0 0h-937.5m8322.5-953.5h-525m0 0l-46.8 46.8m0 0h-3930.868"/><path fill="none" stroke-width="125" d="M163548-86548h325"/><path fill="none" stroke-width="152.4" d="M168445-89789v-1651"/><path fill="none" stroke-width="304.8" d="M154749.5-91633l466 466m0 0h977.5m-1380 235v-637.5m0 0l-63.5-63.5"/><path d="M186613.8-97713.8h-815.83l39.997 7.956 354.335 236.759 236.759 354.335 83.139 417.967v353.566l-83.139 417.967-236.759 354.335-354.335 236.759-417.967 83.139-417.967-83.139-354.335-236.759-236.759-354.335-83.139-417.967v-353.566l83.139-417.967 236.759-354.335 354.335-236.759 39.997-7.956h-1784.06l39.997 7.956 354.335 236.759 236.759 354.335 83.139 417.967v353.566l-83.139 417.967-236.759 354.335-354.335 236.759-417.967 83.139-417.967-83.139-354.335-236.759-236.759-354.335-83.139-417.967v-353.566l83.139-417.967 236.759-354.335 354.335-236.759 39.997-7.956h-1784.06l39.997 7.956 354.335 236.759 236.759 354.335 83.139 417.967v353.566l-83.139 417.967-236.759 354.335-354.335 236.759-417.967 83.139-417.967-83.139-354.335-236.759-236.759-354.335-83.139-417.967v-353.566l83.139-417.967 236.759-354.335 354.335-236.759 39.997-7.956h-1784.06l39.997 7.956 354.335 236.759 236.759 354.335 83.139 417.967v353.566l-83.139 417.967-236.759 354.335-354.335 236.759-417.967 83.139-417.967-83.139-354.335-236.759-236.759-354.335-83.139-417.967v-353.566l83.139-417.967 236.759-354.335 354.335-236.759 39.997-7.956h-1784.06l39.997 7.956 354.335 236.759 236.759 354.335 83.139 417.967v353.566l-83.139 417.967-236.759 354.335-354.335 236.759-417.967 83.139-417.967-83.139-354.335-236.759-236.759-354.335-83.139-417.967v-353.566l83.139-417.967 236.759-354.335 354.335-236.759 39.997-7.956h-1784.06l39.997 7.956 354.335 236.759 236.759 354.335 83.139 417.967v353.566l-83.139 417.967-236.759 354.335-354.335 236.759-417.967 83.139-417.967-83.139-354.335-236.759-236.759-354.335-83.139-417.967v-353.566l83.139-417.967 236.759-354.335 354.335-236.759 39.997-7.956h-1784.06l39.997 7.956 354.335 236.759 236.759 354.335 83.139 417.967v353.566l-83.139 417.967-236.759 354.335-354.335 236.759-417.967 83.139-417.967-83.139-354.335-236.759-236.759-354.335-83.139-417.967v-353.566l83.139-417.967 236.759-354.335 354.335-236.759 39.997-7.956h-1784.06l39.997 7.956 354.335 236.759 236.759 354.335 83.139 417.967v353.566l-83.139 417.967-236.759 354.335-354.335 236.759-417.967 83.139-417.967-83.139-354.335-236.759-236.759-354.335-83.139-417.967v-353.566l83.139-417.967 236.759-354.335 354.335-236.759 39.997-7.956h-1784.06l39.997 7.956 354.335 236.759 236.759 354.335 83.139 417.967v353.566l-83.139 417.967-54.337 81.322 1940.128 1940.128h4466.07v-70.2l15.94-84.714 50.066-77.804 76.392-52.197 90.68-18.363h1002.026l211.049-211.049 98.884-66.072 116.642-23.202h1793.398l116.642 23.202 98.884 66.072 223.397 223.397v-88.27l15.94-84.714 50.066-77.804 76.392-52.197 90.68-18.363h900l84.714 15.94 77.804 50.066 52.197 76.392 18.363 90.68v295.2h284.844v-295.2l15.94-84.714 50.066-77.804 76.392-52.197 90.68-18.363h900l84.714 15.94 77.804 50.066 52.197 76.392 18.363 90.68v1155.87l403.844-403.844V-93983l15.94-84.714 50.066-77.804 76.392-52.197 90.68-18.363h1050l84.714 15.94 77.804 50.066 52.197 76.392 18.363 90.68v20.2h380.316l121.078-121.29 177.312-73.626 191.99-.168 177.44 73.317 135.876 135.639 73.626 177.312.168 191.99-73.317 177.44-69.065 69.186h2568.42v-650l15.94-84.714 50.066-77.804 76.392-52.197 90.68-18.363h1050l84.714 15.94 77.804 50.066 52.197 76.392 18.363 90.68v650l-15.94 84.714-50.066 77.804-76.392 52.197-90.68 18.363h-1050l-84.714-15.94-77.804-50.066-52.197-76.392-18.363-90.68h-2568.42l-66.574 66.69-177.312 73.626-191.99.168-177.44-73.317-87.52-87.367h-414.588v20.2l-15.94 84.714-50.066 77.804-76.392 52.197-90.68 18.363h-852.026l-882.884 882.884 29.625 43.358 18.363 90.68v505.15h408.322v-300.622l34.803-84.02 64.306-64.306 84.02-34.802h500.621l57.15 57.15v483.75h25.4v-483.75l57.15-57.15h500.621l84.02 34.802 64.306 64.306 34.803 84.02v300.622h3692.8v-300.622l34.803-84.02 64.306-64.306 84.02-34.802h500.621l57.15 57.15v483.75h25.4v-483.75l57.15-57.15h500.621l84.02 34.802 64.306 64.306 34.803 84.02v300.622l-57.15 57.15h-1392.9l-57.15-57.15h-3692.8l-57.15 57.15h-1392.9l-57.15-57.15h-408.322v440.322h408.322v-300.622l57.15-57.15h683.75v483.75h25.4v-483.75h683.75l57.15 57.15v300.622h3692.8v-300.622l57.15-57.15h683.75v483.75h25.4v-483.75h683.75l57.15 57.15v300.622l-34.803 84.02-64.306 64.306-84.02 34.802h-500.621l-57.15-57.15h-25.4l-57.15 57.15h-500.621l-84.02-34.802-64.306-64.306-34.803-84.02h-3692.8l-34.803 84.02-64.306 64.306-84.02 34.802h-500.621l-57.15-57.15h-25.4l-57.15 57.15h-500.621l-84.02-34.802-64.306-64.306-34.803-84.02h-408.322V-90883l-15.94 84.714-50.066 77.804-76.392 52.197-90.68 18.363h-900l-84.714-15.94-77.804-50.066-52.197-76.392-18.363-90.68v-1200l15.94-84.714 50.066-77.804 76.392-52.197 90.68-18.363h322.026l533.844-533.844H178239l-84.714-15.94-77.804-50.066-52.197-76.392-18.363-90.68v-295.2h-284.844v295.2l-15.94 84.714-50.066 77.804-76.392 52.197-90.68 18.363h-900l-84.714-15.94-77.804-50.066-52.197-76.392-18.363-90.68v-311.248l-35.964-7.154-87.21-58.272-11.674-7.8-199.425-199.425-55.199 55.199h-758.75v-20h-25.4v20h-758.75l-57.15-57.15v-228.951h-116.547l-121.775 121.775V-93224l-8.556 45.472h246.878v-350.622l57.15-57.15h758.75v533.75h25.4v-533.75h758.75l57.15 57.15v350.622l-34.803 84.02-64.306 64.306-84.02 34.802h-575.621l-57.15-57.15h-25.4l-57.15 57.15h-575.621l-84.02-34.802-64.306-64.306-34.803-84.02h-246.878l-7.384 39.242-50.066 77.804-76.392 52.197-90.68 18.363h-1002.026l-121.775 121.775v190.547h453.951l57.15 57.15v533.75h25.4v-533.75l57.15-57.15h575.621l84.02 34.802 64.306 64.306 34.803 84.02v350.622l-57.15 57.15h-804.15v25.4h20v533.75h25.4v-533.75h758.75l57.15 57.15v350.622l-34.803 84.02-64.306 64.306-84.02 34.802h-575.621l-57.15-57.15h-25.4l-57.15 57.15h-453.951v316.8h453.951l57.15 57.15v533.75h25.4v-533.75l57.15-57.15h575.621l84.02 34.802 64.306 64.306 34.803 84.02v350.622l-57.15 57.15h-804.15v25.4h20v533.75h25.4v-533.75h758.75l57.15 57.15v350.622l-34.803 84.02-64.306 64.306-84.02 34.802h-575.621l-57.15-57.15h-25.4l-57.15 57.15h-453.951v612.147l445.501 445.501v-97.715l-27.024-11.166-135.876-135.639-73.626-177.312-.168-191.99 73.317-177.44 135.639-135.876 177.312-73.626 191.99-.168 177.44 73.317 135.876 135.639 73.626 177.312.168 191.99-73.317 177.44-45.757 45.837v369.292l24.728-10.243h100.622l57.15 57.15v508.75h-20v25.4h20v20h25.4v-20h20v-25.4h-20v-508.75l57.15-57.15h49.15v-1147.4l29.002-145.803 82.59-123.605 109.83-109.83V-90926l15.94-84.714 50.066-77.804 76.392-52.197 90.68-18.363h1123.801v-78.306l-229.539-229.538H174594l-84.714-15.94-77.804-50.066-52.197-76.392-18.363-90.68v-750l15.94-84.714 50.066-77.804 76.392-52.197 90.68-18.363h56.015l18.44-44.629 146.347-146.603 191.31-79.439 207.147-.181 191.448 79.105 146.603 146.347 18.852 45.4H175794l84.714 15.94 77.804 50.066 52.197 76.392 18.363 90.68v444.262l160.715 160.715 95.407-18.978.005.001h71.717v-219l15.94-84.714 50.066-77.804 76.392-52.197 90.68-18.363h900l84.714 15.94 77.804 50.066 52.197 76.392 18.363 90.68v1200l-15.94 84.714-10.278 15.972 32.044 31.988 73.626 177.312.168 191.99-73.317 177.44-104.567 104.75v147.42l-23.202 116.642-66.072 98.884-1168.337 1168.337 13.375 66.051v641.922h641.922l84.714 15.94 58.024 37.338h1605.01l290.674-290.674V-89799l15.94-84.714 50.066-77.804 76.392-52.197 90.68-18.363h1300l84.714 15.94 77.804 50.066 52.197 76.392 10.101 49.88h92.106v-70.2l15.94-84.714 50.066-77.804 76.392-52.197 90.68-18.363h1200l84.714 15.94 77.804 50.066 52.197 76.392 18.363 90.68v305.15h238.322v-350.622l34.803-84.02 64.306-64.306 84.02-34.802h575.621l57.15 57.15v533.75h25.4v-533.75l57.15-57.15h575.621l84.02 34.802 64.306 64.306 34.803 84.02v350.622l-57.15 57.15h-1542.9l-57.15-57.15h-238.322v444.85l-8.556 45.472h246.878v-350.622l57.15-57.15h758.75v533.75h25.4v-533.75h758.75l57.15 57.15v350.622l-34.803 84.02-64.306 64.306-84.02 34.802h-575.621l-57.15-57.15h-25.4l-57.15 57.15h-575.621l-84.02-34.802-64.306-64.306-34.803-84.02h-246.878l-7.384 39.242-50.066 77.804-76.392 52.197-90.68 18.363h-1200l-84.714-15.94-77.804-50.066-52.197-76.392-18.363-90.68v-70.2h-83.844v311.35h3738.322v-925.622l34.803-84.02 64.306-64.306 84.02-34.802h625.621l57.15 57.15v1108.75h25.4v-1108.75l57.15-57.15h625.621l84.02 34.802 64.306 64.306 34.803 84.02v925.622l-57.15 57.15h-1642.9l-57.15-57.15h-3738.322V-87899l-8.556 45.472h3746.878v-925.622l57.15-57.15h808.75v1108.75h25.4v-1108.75h808.75l57.15 57.15v925.622l-34.803 84.02-64.306 64.306-84.02 34.802h-625.621l-57.15-57.15h-25.4l-57.15 57.15h-625.621l-84.02-34.802-64.306-64.306-34.803-84.02h-3746.878l-7.384 39.242-50.066 77.804-76.392 52.197-90.68 18.363h-1102.026l-379.948 379.948-54.094 36.144 49.094 32.804 384.948 384.948H180592l84.714 15.94 77.804 50.066 52.197 76.392 18.363 90.68v880.15h3738.322v-925.622l34.803-84.02 64.306-64.306 84.02-34.802h625.621l57.15 57.15v1108.75h25.4v-1108.75l57.15-57.15h625.621l84.02 34.802 64.306 64.306 34.803 84.02v925.622l-57.15 57.15h-1642.9l-57.15-57.15h-3738.322v451.05h83.844v-70.2l15.94-84.714 50.066-77.804 76.392-52.197 90.68-18.363h1200l84.714 15.94 77.804 50.066 52.197 76.392 18.363 90.68v305.15h238.322v-350.622l34.803-84.02 64.306-64.306 84.02-34.802h575.621l57.15 57.15v533.75h25.4v-533.75l57.15-57.15h575.621l84.02 34.802 64.306 64.306 34.803 84.02v350.622l-57.15 57.15h-1542.9l-57.15-57.15h-238.322v444.85l-8.556 45.472h246.878v-350.622l57.15-57.15h758.75v533.75h25.4v-533.75h758.75l57.15 57.15v239.622h92.8v-925.622l57.15-57.15h808.75v1108.75h25.4v-1108.75h808.75l57.15 57.15v925.622l-34.803 84.02-64.306 64.306-84.02 34.802h-625.621l-57.15-57.15h-25.4l-57.15 57.15h-625.621l-84.02-34.802-64.306-64.306-34.803-84.02h-92.8v111l-34.803 84.02-64.306 64.306-84.02 34.802h-575.621l-57.15-57.15h-25.4l-57.15 57.15h-575.621l-84.02-34.802-64.306-64.306-34.803-84.02h-246.878l-7.384 39.242-50.066 77.804-76.392 52.197-90.68 18.363h-1200l-84.714-15.94-77.804-50.066-52.197-76.392-18.363-90.68v-70.2h-91.521l-8.263 43.914-50.066 77.804-76.392 52.197-90.68 18.363h-1259.353l.09 102.736-73.317 177.44-135.639 135.876-104.602 43.434 3508.435 3508.435h1248.685l116.642 23.202 98.884 66.072 415.1 415.1 13.73 20.549H186420l84.714 15.94 77.804 50.066 31.282 45.782V-97713.8z"/><path fill="none" stroke-width="152.4" d="M186613.8-97713.8h-815.83l39.997 7.956 354.335 236.759 236.759 354.335 83.139 417.967v353.566l-83.139 417.967-236.759 354.335-354.335 236.759-417.967 83.139-417.967-83.139-354.335-236.759-236.759-354.335-83.139-417.967v-353.566l83.139-417.967 236.759-354.335 354.335-236.759 39.997-7.956h-1784.06l39.997 7.956 354.335 236.759 236.759 354.335 83.139 417.967v353.566l-83.139 417.967-236.759 354.335-354.335 236.759-417.967 83.139-417.967-83.139-354.335-236.759-236.759-354.335-83.139-417.967v-353.566l83.139-417.967 236.759-354.335 354.335-236.759 39.997-7.956h-1784.06l39.997 7.956 354.335 236.759 236.759 354.335 83.139 417.967v353.566l-83.139 417.967-236.759 354.335-354.335 236.759-417.967 83.139-417.967-83.139-354.335-236.759-236.759-354.335-83.139-417.967v-353.566l83.139-417.967 236.759-354.335 354.335-236.759 39.997-7.956h-1784.06l39.997 7.956 354.335 236.759 236.759 354.335 83.139 417.967v353.566l-83.139 417.967-236.759 354.335-354.335 236.759-417.967 83.139-417.967-83.139-354.335-236.759-236.759-354.335-83.139-417.967v-353.566l83.139-417.967 236.759-354.335 354.335-236.759 39.997-7.956h-1784.06l39.997 7.956 354.335 236.759 236.759 354.335 83.139 417.967v353.566l-83.139 417.967-236.759 354.335-354.335 236.759-417.967 83.139-417.967-83.139-354.335-236.759-236.759-354.335-83.139-417.967v-353.566l83.139-417.967 236.759-354.335 354.335-236.759 39.997-7.956h-1784.06l39.997 7.956 354.335 236.759 236.759 354.335 83.139 417.967v353.566l-83.139 417.967-236.759 354.335-354.335 236.759-417.967 83.139-417.967-83.139-354.335-236.759-236.759-354.335-83.139-417.967v-353.566l83.139-417.967 236.759-354.335 354.335-236.759 39.997-7.956h-1784.06l39.997 7.956 354.335 236.759 236.759 354.335 83.139 417.967v353.566l-83.139 417.967-236.759 354.335-354.335 236.759-417.967 83.139-417.967-83.139-354.335-236.759-236.759-354.335-83.139-417.967v-353.566l83.139-417.967 236.759-354.335 354.335-236.759 39.997-7.956h-1784.06l39.997 7.956 354.335 236.759 236.759 354.335 83.139 417.967v353.566l-83.139 417.967-236.759 354.335-354.335 236.759-417.967 83.139-417.967-83.139-354.335-236.759-236.759-354.335-83.139-417.967v-353.566l83.139-417.967 236.759-354.335 354.335-236.759 39.997-7.956h-1784.06l39.997 7.956 354.335 236.759 236.759 354.335 83.139 417.967v353.566l-83.139 417.967-54.337 81.322 1940.128 1940.128h4466.07v-70.2l15.94-84.714 50.066-77.804 76.392-52.197 90.68-18.363h1002.026l211.049-211.049 98.884-66.072 116.642-23.202h1793.398l116.642 23.202 98.884 66.072 223.397 223.397v-88.27l15.94-84.714 50.066-77.804 76.392-52.197 90.68-18.363h900l84.714 15.94 77.804 50.066 52.197 76.392 18.363 90.68v295.2h284.844v-295.2l15.94-84.714 50.066-77.804 76.392-52.197 90.68-18.363h900l84.714 15.94 77.804 50.066 52.197 76.392 18.363 90.68v1155.87l403.844-403.844V-93983l15.94-84.714 50.066-77.804 76.392-52.197 90.68-18.363h1050l84.714 15.94 77.804 50.066 52.197 76.392 18.363 90.68v20.2h380.316l121.078-121.29 177.312-73.626 191.99-.168 177.44 73.317 135.876 135.639 73.626 177.312.168 191.99-73.317 177.44-69.065 69.186h2568.42v-650l15.94-84.714 50.066-77.804 76.392-52.197 90.68-18.363h1050l84.714 15.94 77.804 50.066 52.197 76.392 18.363 90.68v650l-15.94 84.714-50.066 77.804-76.392 52.197-90.68 18.363h-1050l-84.714-15.94-77.804-50.066-52.197-76.392-18.363-90.68h-2568.42l-66.574 66.69-177.312 73.626-191.99.168-177.44-73.317-87.52-87.367h-414.588v20.2l-15.94 84.714-50.066 77.804-76.392 52.197-90.68 18.363h-852.026l-882.884 882.884 29.625 43.358 18.363 90.68v505.15h408.322v-300.622l34.803-84.02 64.306-64.306 84.02-34.802h500.621l57.15 57.15v483.75h25.4v-483.75l57.15-57.15h500.621l84.02 34.802 64.306 64.306 34.803 84.02v300.622h3692.8v-300.622l34.803-84.02 64.306-64.306 84.02-34.802h500.621l57.15 57.15v483.75h25.4v-483.75l57.15-57.15h500.621l84.02 34.802 64.306 64.306 34.803 84.02v300.622l-57.15 57.15h-1392.9l-57.15-57.15h-3692.8l-57.15 57.15h-1392.9l-57.15-57.15h-408.322v440.322h408.322v-300.622l57.15-57.15h683.75v483.75h25.4v-483.75h683.75l57.15 57.15v300.622h3692.8v-300.622l57.15-57.15h683.75v483.75h25.4v-483.75h683.75l57.15 57.15v300.622l-34.803 84.02-64.306 64.306-84.02 34.802h-500.621l-57.15-57.15h-25.4l-57.15 57.15h-500.621l-84.02-34.802-64.306-64.306-34.803-84.02h-3692.8l-34.803 84.02-64.306 64.306-84.02 34.802h-500.621l-57.15-57.15h-25.4l-57.15 57.15h-500.621l-84.02-34.802-64.306-64.306-34.803-84.02h-408.322V-90883l-15.94 84.714-50.066 77.804-76.392 52.197-90.68 18.363h-900l-84.714-15.94-77.804-50.066-52.197-76.392-18.363-90.68v-1200l15.94-84.714 50.066-77.804 76.392-52.197 90.68-18.363h322.026l533.844-533.844H178239l-84.714-15.94-77.804-50.066-52.197-76.392-18.363-90.68v-295.2h-284.844v295.2l-15.94 84.714-50.066 77.804-76.392 52.197-90.68 18.363h-900l-84.714-15.94-77.804-50.066-52.197-76.392-18.363-90.68v-311.248l-35.964-7.154-87.21-58.272-11.674-7.8-199.425-199.425-55.199 55.199h-758.75v-20h-25.4v20h-758.75l-57.15-57.15v-228.951h-116.547l-121.775 121.775V-93224l-8.556 45.472h246.878v-350.622l57.15-57.15h758.75v533.75h25.4v-533.75h758.75l57.15 57.15v350.622l-34.803 84.02-64.306 64.306-84.02 34.802h-575.621l-57.15-57.15h-25.4l-57.15 57.15h-575.621l-84.02-34.802-64.306-64.306-34.803-84.02h-246.878l-7.384 39.242-50.066 77.804-76.392 52.197-90.68 18.363h-1002.026l-121.775 121.775v190.547h453.951l57.15 57.15v533.75h25.4v-533.75l57.15-57.15h575.621l84.02 34.802 64.306 64.306 34.803 84.02v350.622l-57.15 57.15h-804.15v25.4h20v533.75h25.4v-533.75h758.75l57.15 57.15v350.622l-34.803 84.02-64.306 64.306-84.02 34.802h-575.621l-57.15-57.15h-25.4l-57.15 57.15h-453.951v316.8h453.951l57.15 57.15v533.75h25.4v-533.75l57.15-57.15h575.621l84.02 34.802 64.306 64.306 34.803 84.02v350.622l-57.15 57.15h-804.15v25.4h20v533.75h25.4v-533.75h758.75l57.15 57.15v350.622l-34.803 84.02-64.306 64.306-84.02 34.802h-575.621l-57.15-57.15h-25.4l-57.15 57.15h-453.951v612.147l445.501 445.501v-97.715l-27.024-11.166-135.876-135.639-73.626-177.312-.168-191.99 73.317-177.44 135.639-135.876 177.312-73.626 191.99-.168 177.44 73.317 135.876 135.639 73.626 177.312.168 191.99-73.317 177.44-45.757 45.837v369.292l24.728-10.243h100.622l57.15 57.15v508.75h-20v25.4h20v20h25.4v-20h20v-25.4h-20v-508.75l57.15-57.15h49.15v-1147.4l29.002-145.803 82.59-123.605 109.83-109.83V-90926l15.94-84.714 50.066-77.804 76.392-52.197 90.68-18.363h1123.801v-78.306l-229.539-229.538H174594l-84.714-15.94-77.804-50.066-52.197-76.392-18.363-90.68v-750l15.94-84.714 50.066-77.804 76.392-52.197 90.68-18.363h56.015l18.44-44.629 146.347-146.603 191.31-79.439 207.147-.181 191.448 79.105 146.603 146.347 18.852 45.4H175794l84.714 15.94 77.804 50.066 52.197 76.392 18.363 90.68v444.262l160.715 160.715 95.407-18.978.005.001h71.717v-219l15.94-84.714 50.066-77.804 76.392-52.197 90.68-18.363h900l84.714 15.94 77.804 50.066 52.197 76.392 18.363 90.68v1200l-15.94 84.714-10.278 15.972 32.044 31.988 73.626 177.312.168 191.99-73.317 177.44-104.567 104.75v147.42l-23.202 116.642-66.072 98.884-1168.337 1168.337 13.375 66.051v641.922h641.922l84.714 15.94 58.024 37.338h1605.01l290.674-290.674V-89799l15.94-84.714 50.066-77.804 76.392-52.197 90.68-18.363h1300l84.714 15.94 77.804 50.066 52.197 76.392 10.101 49.88h92.106v-70.2l15.94-84.714 50.066-77.804 76.392-52.197 90.68-18.363h1200l84.714 15.94 77.804 50.066 52.197 76.392 18.363 90.68v305.15h238.322v-350.622l34.803-84.02 64.306-64.306 84.02-34.802h575.621l57.15 57.15v533.75h25.4v-533.75l57.15-57.15h575.621l84.02 34.802 64.306 64.306 34.803 84.02v350.622l-57.15 57.15h-1542.9l-57.15-57.15h-238.322v444.85l-8.556 45.472h246.878v-350.622l57.15-57.15h758.75v533.75h25.4v-533.75h758.75l57.15 57.15v350.622l-34.803 84.02-64.306 64.306-84.02 34.802h-575.621l-57.15-57.15h-25.4l-57.15 57.15h-575.621l-84.02-34.802-64.306-64.306-34.803-84.02h-246.878l-7.384 39.242-50.066 77.804-76.392 52.197-90.68 18.363h-1200l-84.714-15.94-77.804-50.066-52.197-76.392-18.363-90.68v-70.2h-83.844v311.35h3738.322v-925.622l34.803-84.02 64.306-64.306 84.02-34.802h625.621l57.15 57.15v1108.75h25.4v-1108.75l57.15-57.15h625.621l84.02 34.802 64.306 64.306 34.803 84.02v925.622l-57.15 57.15h-1642.9l-57.15-57.15h-3738.322V-87899l-8.556 45.472h3746.878v-925.622l57.15-57.15h808.75v1108.75h25.4v-1108.75h808.75l57.15 57.15v925.622l-34.803 84.02-64.306 64.306-84.02 34.802h-625.621l-57.15-57.15h-25.4l-57.15 57.15h-625.621l-84.02-34.802-64.306-64.306-34.803-84.02h-3746.878l-7.384 39.242-50.066 77.804-76.392 52.197-90.68 18.363h-1102.026l-379.948 379.948-54.094 36.144 49.094 32.804 384.948 384.948H180592l84.714 15.94 77.804 50.066 52.197 76.392 18.363 90.68v880.15h3738.322v-925.622l34.803-84.02 64.306-64.306 84.02-34.802h625.621l57.15 57.15v1108.75h25.4v-1108.75l57.15-57.15h625.621l84.02 34.802 64.306 64.306 34.803 84.02v925.622l-57.15 57.15h-1642.9l-57.15-57.15h-3738.322v451.05h83.844v-70.2l15.94-84.714 50.066-77.804 76.392-52.197 90.68-18.363h1200l84.714 15.94 77.804 50.066 52.197 76.392 18.363 90.68v305.15h238.322v-350.622l34.803-84.02 64.306-64.306 84.02-34.802h575.621l57.15 57.15v533.75h25.4v-533.75l57.15-57.15h575.621l84.02 34.802 64.306 64.306 34.803 84.02v350.622l-57.15 57.15h-1542.9l-57.15-57.15h-238.322v444.85l-8.556 45.472h246.878v-350.622l57.15-57.15h758.75v533.75h25.4v-533.75h758.75l57.15 57.15v239.622h92.8v-925.622l57.15-57.15h808.75v1108.75h25.4v-1108.75h808.75l57.15 57.15v925.622l-34.803 84.02-64.306 64.306-84.02 34.802h-625.621l-57.15-57.15h-25.4l-57.15 57.15h-625.621l-84.02-34.802-64.306-64.306-34.803-84.02h-92.8v111l-34.803 84.02-64.306 64.306-84.02 34.802h-575.621l-57.15-57.15h-25.4l-57.15 57.15h-575.621l-84.02-34.802-64.306-64.306-34.803-84.02h-246.878l-7.384 39.242-50.066 77.804-76.392 52.197-90.68 18.363h-1200l-84.714-15.94-77.804-50.066-52.197-76.392-18.363-90.68v-70.2h-91.521l-8.263 43.914-50.066 77.804-76.392 52.197-90.68 18.363h-1259.353l.09 102.736-73.317 177.44-135.639 135.876-104.602 43.434 3508.435 3508.435h1248.685l116.642 23.202 98.884 66.072 415.1 415.1 13.73 20.549H186420l84.714 15.94 77.804 50.066 31.282 45.782V-97713.8"/><path d="M157739.401-79954.481l23.202-116.642 66.072-98.884 1395.393-1395.393h-343.218l-57.15-57.15v-533.75h758.75l57.15 57.15v118.218l420.993-420.993 98.884-66.072 66.445-13.217V-83615l15.94-84.714 50.066-77.804 76.392-52.197 65.489-13.262 33.506-81.09 146.347-146.603 191.31-79.439 207.147-.181 191.448 79.105 146.603 146.347 33.827 81.463 59.717 11.237 77.804 50.066 52.197 76.392 18.363 90.68v510.01h955.222v-1075.441l34.802-84.02 64.306-64.306 47.992-19.879v-229.514l57.15-57.15h783.75v20h25.4v-20h783.75l57.15 57.15v214.59h19.972l84.02 34.803 64.306 64.306 34.802 84.02v1075.441l-57.15 57.15h-958.85v-20h-25.4v20h-958.85l-57.15-57.15h-955.222v645.235l86.549 57.83 390.406 390.406h478.267v-953.771l57.15-57.15h958.85v20h25.4v-20h958.85l57.15 57.15v953.771h1842.367l4705.507-4705.507 1.607-1.074h-3481.24l-1081.786 1081.787-107.125 71.578-126.362 25.135h-1463.595l-175.086 175.087-107.125 71.578-126.362 25.135h-85.105l-10.257 54.514-50.066 77.804-18.574 12.691 45.3 45.3 34.802 84.02v275.621l-57.15 57.15h-783.75v-20h-25.4v20h-783.75l-57.15-57.15v-275.621l34.802-84.02 44.762-44.762-13.482-8.675-52.197-76.392-18.363-90.68v-600l15.94-84.714 50.066-77.804 17.592-12.02-13.038-8.39-52.197-76.392-18.363-90.68v-600l15.94-84.714 50.066-77.804 76.392-52.197 90.68-18.363h1250l84.714 15.94 77.804 50.066 52.197 76.392 12.247 60.48h85.538l126.362 25.135 107.125 71.578 175.086 175.087h1158.485l1081.785-1081.784.002-.003 101.534-67.842 5.591-3.736 126.362-25.136.005.001h3818.877l32.424-21.665 126.362-25.135h70.394l13.926-9.515 90.68-18.363h641.922v-443.948l-823.188-823.188-3.554 2.429-90.68 18.363h-1200l-84.714-15.94-77.804-50.066-52.197-76.392-18.363-90.68v-900l15.94-84.714 50.066-77.804 76.392-52.197 90.68-18.363h1002.026l121.775-121.775v-167.547h-453.951l-57.15-57.15v-608.75h20v-25.4h-20v-20h-25.4v20h-758.75l-57.15-57.15v-425.622l34.803-84.02 32.648-32.648h-672.963l48.827 71.46 18.363 90.68v900l-8.556 45.472h546.878v-425.622l57.15-57.15h758.75v608.75l-57.15 57.15h-575.621l-84.02-34.802-64.306-64.306-34.803-84.02h-546.878l-7.384 39.242-50.066 77.804-76.392 52.197-90.68 18.363h-295.2v284.844h295.2l84.714 15.94 77.804 50.066 52.197 76.392 18.363 90.68v900l-15.94 84.714-50.066 77.804-76.392 52.197-90.68 18.363h-1200l-84.714-15.94-77.804-50.066-52.197-76.392-18.363-90.68v-900l15.94-84.714 50.066-77.804 76.392-52.197 90.68-18.363h295.2v-284.844h-295.2l-84.714-15.94-77.804-50.066-52.197-76.392-18.363-90.68v-900l15.94-84.714 49.823-77.426h-1290.507v718.82l-15.94 84.714-50.066 77.804-76.392 52.197-90.68 18.363h-1600.2l-84.714-15.94-77.804-50.066-52.197-76.392-18.363-90.68V-92386h-1070.744v519l-15.94 84.714-50.066 77.804-76.392 52.197-90.68 18.363h-3200l-84.714-15.94-77.804-50.066-52.197-76.392-18.363-90.68v-1800l15.94-84.714 50.066-77.804 76.392-52.197 30.893-6.256-6.621-6.621-82.59-123.605-11.036-55.483-17.966-90.32v-1162.803l-36.967-7.353-354.335-236.759-236.759-354.335-83.139-417.967v-353.566l83.139-417.967 236.759-354.335 354.335-236.759 39.997-7.956h-1784.06l39.997 7.956 354.335 236.759 236.759 354.335 83.139 417.967v353.566l-83.139 417.967-236.759 354.335-354.335 236.759-417.967 83.139-111.623-22.203 99.874 41.267 373.391 372.74 202.327 487.258.461 527.595-201.477 487.611-372.74 373.391-487.258 202.327-527.595.461-487.611-201.477-373.391-372.74-202.327-487.258-.461-527.595 201.477-487.611 372.74-373.391 487.258-202.327 460.502-.402-205.849-137.544-236.759-354.335-83.139-417.967v-353.566l83.139-417.967 236.759-354.335 354.335-236.759 39.997-7.956h-1152.941l48.309 48.309 34.802 84.02v991.621l-57.15 57.15h-1022.35v-20h-25.4v20h-1022.35l-57.15-57.15v-991.621l34.802-84.02 48.309-48.309h-184.711v2255.271h101.6v-991.621l57.15-57.15h1022.35v1174.75h25.4v-1174.75h1022.35l57.15 57.15v991.621l-34.802 84.02-64.306 64.306-84.02 34.803h-839.222l-57.15-57.15h-25.4l-57.15 57.15h-839.222l-84.02-34.803-64.306-64.306-34.802-84.02h-101.6v1855.679h399.7v-575.621l34.802-84.02 64.306-64.306 84.02-34.803h350.622l57.15 57.15v758.75h25.4v-758.75l57.15-57.15h350.622l84.02 34.803 64.306 64.306 34.802 84.02v575.621l-57.15 57.15h-1092.9l-57.15-57.15h-399.7v715.321h399.7v-575.621l57.15-57.15h533.75v758.75h25.4v-758.75h533.75l57.15 57.15v575.621l-34.802 84.02-64.306 64.306-84.02 34.803h-350.622l-57.15-57.15h-25.4l-57.15 57.15h-350.622l-84.02-34.803-64.306-64.306-34.802-84.02h-399.7v239.679h4400.2v-575.621l34.802-84.02 64.306-64.306 84.02-34.803h350.622l57.15 57.15v758.75h25.4v-758.75l57.15-57.15h350.622l84.02 34.803 64.306 64.306 34.802 84.02v575.621l-57.15 57.15h-1092.9l-57.15-57.15h-4400.2v1990.982l26.12-17.847 90.68-18.363h485.404l-50.338-121.226-8.28-1.558-77.804-50.066-52.197-76.392-18.363-90.68v-1200l15.94-84.714 50.066-77.804 76.392-52.197 90.68-18.363h750l84.714 15.94 77.804 50.066 52.197 76.392 18.363 90.68v669.263l15.737 15.737h411.607v-109l15.94-84.714 15.957-24.798-13.534-19.808-18.363-90.68v-180l15.94-84.714 50.066-77.804 76.392-52.197 90.68-18.363h321.4v-72.394l34.803-84.02 64.306-64.306 84.02-34.802h125.621l57.15 57.15v908.75h-20v25.4h20v908.75h25.4v-908.75h20v-25.4h-20v-908.75l57.15-57.15h125.621l84.02 34.802 64.306 64.306 34.803 84.02v76.872h76.55l57.15 57.15v248.75h25.4v-248.75l57.15-57.15h150.621l84.02 34.802 64.306 64.306 34.803 84.02v65.622l-57.15 57.15h-379.15v25.4h20v20h25.4v-20h333.75l21.771 21.771h535.179v-575.621l57.15-57.15h533.75v758.75h25.4v-758.75h533.75l57.15 57.15v575.621l-34.802 84.02-64.306 64.306-84.02 34.803h-350.622l-57.15-57.15h-25.4l-57.15 57.15h-350.622l-84.02-34.803-64.306-64.306-34.802-84.02h-535.179l35.379 35.379v65.622l-26.864 64.853 12.979 18.995 18.363 90.68v109H158261l145.803 29.002 11.853 7.92H159125l84.714 15.94 77.804 50.066 52.197 76.392 18.363 90.68v219h225.844v-208l15.94-84.714 50.066-77.804 76.392-52.197 90.68-18.363h3200l84.714 15.94 77.804 50.066 52.197 76.392 18.363 90.68v1766.29h1075.222v-1075.441l34.802-84.02 64.306-64.306 84.02-34.803h775.722l57.15 57.15v1258.57h25.4v-1258.57l57.15-57.15h775.722l84.02 34.803 64.306 64.306 34.802 84.02v1075.441l-57.15 57.15h-1943.1l-57.15-57.15h-1075.222v33.71l-15.94 84.714-50.066 77.804-76.392 52.197-90.68 18.363h-1082.292l-76.023 183.989-146.347 146.603-191.31 79.439-207.147.181-191.448-79.105-146.603-146.347-76.719-184.76H159817l-84.714-15.94-77.804-50.066-52.197-76.392-18.363-90.68v-830h-225.844v219l-15.94 84.714-50.066 77.804-76.392 52.197-90.68 18.363h-750l-84.714-15.94-77.804-50.066-52.197-76.392-18.363-90.68v-669.262l-38.738-38.738H157243l-145.802-29.002-.598-.4v43.874l-34.803 84.02-64.306 64.306-84.02 34.802h-125.621l-57.15-57.15h-25.4l-57.15 57.15h-125.621l-84.02-34.802-64.306-64.306-34.803-84.02v-43.874l-.598.4L156193-90786h-876.928l-38.395 92.922H155763l84.714 15.94 77.804 50.066 52.197 76.392 18.363 90.68v680.474l66.922-13.552h2100l84.714 15.94 77.804 50.066 52.197 76.392 18.363 90.68v1274.431h5929.222v-1075.441l57.15-57.15h958.85v1258.57h25.4v-1258.57h958.85l57.15 57.15v1075.441l-34.802 84.02-64.306 64.306-84.02 34.803h-775.722l-57.15-57.15h-25.4l-57.15 57.15h-775.722l-84.02-34.803-64.306-64.306-34.802-84.02h-5929.222v171.969h312.393l84.02 34.802 64.306 64.306 34.803 84.02v200.622l-57.15 57.15h-1098.75v-20h-25.4v20h-1098.75l-57.15-57.15v-122.072h-491.4l-83.662-15.742 16.74 82.664v1175l-15.94 84.714-50.066 77.804-76.392 52.197-90.68 18.363h-569v33.844h569l84.714 15.94 77.804 50.066 52.197 76.392 18.363 90.68v513.294l45.584-45.664 191.31-79.439 207.147-.181 109.803 45.37V-85935l15.94-84.714 9.329-14.498-6.906-10.108-18.363-90.68v-450l15.94-84.714 9.329-14.498-6.906-10.108-18.363-90.68v-450l15.94-84.714 10.62-16.504-22.082-53.31v-200.622l57.15-57.15h1098.75v20h25.4v-20h1098.75l57.15 57.15v200.622l-21.706 52.402 7.821 11.446 18.363 90.68v450l-15.94 84.714-9.329 14.498 6.906 10.108 2.203 10.88h310.004v-183.2l15.94-84.714 50.066-77.804 76.392-52.197 90.68-18.363h1250l84.714 15.94 77.804 50.066 52.197 76.392 18.363 90.68v600l-15.94 84.714-50.066 77.804-17.592 12.02 13.038 8.39 52.197 76.392 18.363 90.68v600l-15.94 84.714-50.066 77.804-17.592 12.02 13.038 8.39 52.197 76.392 18.363 90.68v600l-15.94 84.714-50.066 77.804-76.392 52.197-90.68 18.363h-1250l-84.714-15.94-77.804-50.066-52.197-76.392-13.082-64.604-84.811-56.668-288.382-288.382-68.33 46.689-90.68 18.363h-266.922V-83160l-15.94 84.714-50.066 77.804-76.392 52.197-90.68 18.363h-669v149.844h17l84.714 15.94 77.804 50.066 52.197 76.392 18.363 90.68v305.15h238.322v-350.622l34.803-84.02 64.306-64.306 84.02-34.802h575.621l57.15 57.15v533.75h25.4v-533.75l57.15-57.15h575.621l84.02 34.802 64.306 64.306 34.803 84.02v350.622l-57.15 57.15h-1542.9l-57.15-57.15h-238.322v444.85l-8.556 45.472h246.878v-350.622l57.15-57.15h758.75v533.75l-57.15 57.15h-575.621l-84.02-34.802-64.306-64.306-34.803-84.02h-246.878l-7.384 39.242-50.066 77.804-76.392 52.197-90.68 18.363h-219v232.844h110l84.714 15.94 77.804 50.066 52.197 76.392 18.363 90.68v900l-15.94 84.714-50.066 77.804-76.392 52.197-10.592 2.145 257.313 256.864v-233.205z"/><path fill="none" stroke-width="152.4" d="M157739.401-79954.481l23.202-116.642 66.072-98.884 1395.393-1395.393h-343.218l-57.15-57.15v-533.75h758.75l57.15 57.15v118.218l420.993-420.993 98.884-66.072 66.445-13.217V-83615l15.94-84.714 50.066-77.804 76.392-52.197 65.489-13.262 33.506-81.09 146.347-146.603 191.31-79.439 207.147-.181 191.448 79.105 146.603 146.347 33.827 81.463 59.717 11.237 77.804 50.066 52.197 76.392 18.363 90.68v510.01h955.222v-1075.441l34.802-84.02 64.306-64.306 47.992-19.879v-229.514l57.15-57.15h783.75v20h25.4v-20h783.75l57.15 57.15v214.59h19.972l84.02 34.803 64.306 64.306 34.802 84.02v1075.441l-57.15 57.15h-958.85v-20h-25.4v20h-958.85l-57.15-57.15h-955.222v645.235l86.549 57.83 390.406 390.406h478.267v-953.771l57.15-57.15h958.85v20h25.4v-20h958.85l57.15 57.15v953.771h1842.367l4705.507-4705.507 1.607-1.074h-3481.24l-1081.786 1081.787-107.125 71.578-126.362 25.135h-1463.595l-175.086 175.087-107.125 71.578-126.362 25.135h-85.105l-10.257 54.514-50.066 77.804-18.574 12.691 45.3 45.3 34.802 84.02v275.621l-57.15 57.15h-783.75v-20h-25.4v20h-783.75l-57.15-57.15v-275.621l34.802-84.02 44.762-44.762-13.482-8.675-52.197-76.392-18.363-90.68v-600l15.94-84.714 50.066-77.804 17.592-12.02-13.038-8.39-52.197-76.392-18.363-90.68v-600l15.94-84.714 50.066-77.804 76.392-52.197 90.68-18.363h1250l84.714 15.94 77.804 50.066 52.197 76.392 12.247 60.48h85.538l126.362 25.135 107.125 71.578 175.086 175.087h1158.485l1081.785-1081.784.002-.003 101.534-67.842 5.591-3.736 126.362-25.136.005.001h3818.877l32.424-21.665 126.362-25.135h70.394l13.926-9.515 90.68-18.363h641.922v-443.948l-823.188-823.188-3.554 2.429-90.68 18.363h-1200l-84.714-15.94-77.804-50.066-52.197-76.392-18.363-90.68v-900l15.94-84.714 50.066-77.804 76.392-52.197 90.68-18.363h1002.026l121.775-121.775v-167.547h-453.951l-57.15-57.15v-608.75h20v-25.4h-20v-20h-25.4v20h-758.75l-57.15-57.15v-425.622l34.803-84.02 32.648-32.648h-672.963l48.827 71.46 18.363 90.68v900l-8.556 45.472h546.878v-425.622l57.15-57.15h758.75v608.75l-57.15 57.15h-575.621l-84.02-34.802-64.306-64.306-34.803-84.02h-546.878l-7.384 39.242-50.066 77.804-76.392 52.197-90.68 18.363h-295.2v284.844h295.2l84.714 15.94 77.804 50.066 52.197 76.392 18.363 90.68v900l-15.94 84.714-50.066 77.804-76.392 52.197-90.68 18.363h-1200l-84.714-15.94-77.804-50.066-52.197-76.392-18.363-90.68v-900l15.94-84.714 50.066-77.804 76.392-52.197 90.68-18.363h295.2v-284.844h-295.2l-84.714-15.94-77.804-50.066-52.197-76.392-18.363-90.68v-900l15.94-84.714 49.823-77.426h-1290.507v718.82l-15.94 84.714-50.066 77.804-76.392 52.197-90.68 18.363h-1600.2l-84.714-15.94-77.804-50.066-52.197-76.392-18.363-90.68V-92386h-1070.744v519l-15.94 84.714-50.066 77.804-76.392 52.197-90.68 18.363h-3200l-84.714-15.94-77.804-50.066-52.197-76.392-18.363-90.68v-1800l15.94-84.714 50.066-77.804 76.392-52.197 30.893-6.256-6.621-6.621-82.59-123.605-11.036-55.483-17.966-90.32v-1162.803l-36.967-7.353-354.335-236.759-236.759-354.335-83.139-417.967v-353.566l83.139-417.967 236.759-354.335 354.335-236.759 39.997-7.956h-1784.06l39.997 7.956 354.335 236.759 236.759 354.335 83.139 417.967v353.566l-83.139 417.967-236.759 354.335-354.335 236.759-417.967 83.139-111.623-22.203 99.874 41.267 373.391 372.74 202.327 487.258.461 527.595-201.477 487.611-372.74 373.391-487.258 202.327-527.595.461-487.611-201.477-373.391-372.74-202.327-487.258-.461-527.595 201.477-487.611 372.74-373.391 487.258-202.327 460.502-.402-205.849-137.544-236.759-354.335-83.139-417.967v-353.566l83.139-417.967 236.759-354.335 354.335-236.759 39.997-7.956h-1152.941l48.309 48.309 34.802 84.02v991.621l-57.15 57.15h-1022.35v-20h-25.4v20h-1022.35l-57.15-57.15v-991.621l34.802-84.02 48.309-48.309h-184.711v2255.271h101.6v-991.621l57.15-57.15h1022.35v1174.75h25.4v-1174.75h1022.35l57.15 57.15v991.621l-34.802 84.02-64.306 64.306-84.02 34.803h-839.222l-57.15-57.15h-25.4l-57.15 57.15h-839.222l-84.02-34.803-64.306-64.306-34.802-84.02h-101.6v1855.679h399.7v-575.621l34.802-84.02 64.306-64.306 84.02-34.803h350.622l57.15 57.15v758.75h25.4v-758.75l57.15-57.15h350.622l84.02 34.803 64.306 64.306 34.802 84.02v575.621l-57.15 57.15h-1092.9l-57.15-57.15h-399.7v715.321h399.7v-575.621l57.15-57.15h533.75v758.75h25.4v-758.75h533.75l57.15 57.15v575.621l-34.802 84.02-64.306 64.306-84.02 34.803h-350.622l-57.15-57.15h-25.4l-57.15 57.15h-350.622l-84.02-34.803-64.306-64.306-34.802-84.02h-399.7v239.679h4400.2v-575.621l34.802-84.02 64.306-64.306 84.02-34.803h350.622l57.15 57.15v758.75h25.4v-758.75l57.15-57.15h350.622l84.02 34.803 64.306 64.306 34.802 84.02v575.621l-57.15 57.15h-1092.9l-57.15-57.15h-4400.2v1990.982l26.12-17.847 90.68-18.363h485.404l-50.338-121.226-8.28-1.558-77.804-50.066-52.197-76.392-18.363-90.68v-1200l15.94-84.714 50.066-77.804 76.392-52.197 90.68-18.363h750l84.714 15.94 77.804 50.066 52.197 76.392 18.363 90.68v669.263l15.737 15.737h411.607v-109l15.94-84.714 15.957-24.798-13.534-19.808-18.363-90.68v-180l15.94-84.714 50.066-77.804 76.392-52.197 90.68-18.363h321.4v-72.394l34.803-84.02 64.306-64.306 84.02-34.802h125.621l57.15 57.15v908.75h-20v25.4h20v908.75h25.4v-908.75h20v-25.4h-20v-908.75l57.15-57.15h125.621l84.02 34.802 64.306 64.306 34.803 84.02v76.872h76.55l57.15 57.15v248.75h25.4v-248.75l57.15-57.15h150.621l84.02 34.802 64.306 64.306 34.803 84.02v65.622l-57.15 57.15h-379.15v25.4h20v20h25.4v-20h333.75l21.771 21.771h535.179v-575.621l57.15-57.15h533.75v758.75h25.4v-758.75h533.75l57.15 57.15v575.621l-34.802 84.02-64.306 64.306-84.02 34.803h-350.622l-57.15-57.15h-25.4l-57.15 57.15h-350.622l-84.02-34.803-64.306-64.306-34.802-84.02h-535.179l35.379 35.379v65.622l-26.864 64.853 12.979 18.995 18.363 90.68v109H158261l145.803 29.002 11.853 7.92H159125l84.714 15.94 77.804 50.066 52.197 76.392 18.363 90.68v219h225.844v-208l15.94-84.714 50.066-77.804 76.392-52.197 90.68-18.363h3200l84.714 15.94 77.804 50.066 52.197 76.392 18.363 90.68v1766.29h1075.222v-1075.441l34.802-84.02 64.306-64.306 84.02-34.803h775.722l57.15 57.15v1258.57h25.4v-1258.57l57.15-57.15h775.722l84.02 34.803 64.306 64.306 34.802 84.02v1075.441l-57.15 57.15h-1943.1l-57.15-57.15h-1075.222v33.71l-15.94 84.714-50.066 77.804-76.392 52.197-90.68 18.363h-1082.292l-76.023 183.989-146.347 146.603-191.31 79.439-207.147.181-191.448-79.105-146.603-146.347-76.719-184.76H159817l-84.714-15.94-77.804-50.066-52.197-76.392-18.363-90.68v-830h-225.844v219l-15.94 84.714-50.066 77.804-76.392 52.197-90.68 18.363h-750l-84.714-15.94-77.804-50.066-52.197-76.392-18.363-90.68v-669.262l-38.738-38.738H157243l-145.802-29.002-.598-.4v43.874l-34.803 84.02-64.306 64.306-84.02 34.802h-125.621l-57.15-57.15h-25.4l-57.15 57.15h-125.621l-84.02-34.802-64.306-64.306-34.803-84.02v-43.874l-.598.4L156193-90786h-876.928l-38.395 92.922H155763l84.714 15.94 77.804 50.066 52.197 76.392 18.363 90.68v680.474l66.922-13.552h2100l84.714 15.94 77.804 50.066 52.197 76.392 18.363 90.68v1274.431h5929.222v-1075.441l57.15-57.15h958.85v1258.57h25.4v-1258.57h958.85l57.15 57.15v1075.441l-34.802 84.02-64.306 64.306-84.02 34.803h-775.722l-57.15-57.15h-25.4l-57.15 57.15h-775.722l-84.02-34.803-64.306-64.306-34.802-84.02h-5929.222v171.969h312.393l84.02 34.802 64.306 64.306 34.803 84.02v200.622l-57.15 57.15h-1098.75v-20h-25.4v20h-1098.75l-57.15-57.15v-122.072h-491.4l-83.662-15.742 16.74 82.664v1175l-15.94 84.714-50.066 77.804-76.392 52.197-90.68 18.363h-569v33.844h569l84.714 15.94 77.804 50.066 52.197 76.392 18.363 90.68v513.294l45.584-45.664 191.31-79.439 207.147-.181 109.803 45.37V-85935l15.94-84.714 9.329-14.498-6.906-10.108-18.363-90.68v-450l15.94-84.714 9.329-14.498-6.906-10.108-18.363-90.68v-450l15.94-84.714 10.62-16.504-22.082-53.31v-200.622l57.15-57.15h1098.75v20h25.4v-20h1098.75l57.15 57.15v200.622l-21.706 52.402 7.821 11.446 18.363 90.68v450l-15.94 84.714-9.329 14.498 6.906 10.108 2.203 10.88h310.004v-183.2l15.94-84.714 50.066-77.804 76.392-52.197 90.68-18.363h1250l84.714 15.94 77.804 50.066 52.197 76.392 18.363 90.68v600l-15.94 84.714-50.066 77.804-17.592 12.02 13.038 8.39 52.197 76.392 18.363 90.68v600l-15.94 84.714-50.066 77.804-17.592 12.02 13.038 8.39 52.197 76.392 18.363 90.68v600l-15.94 84.714-50.066 77.804-76.392 52.197-90.68 18.363h-1250l-84.714-15.94-77.804-50.066-52.197-76.392-13.082-64.604-84.811-56.668-288.382-288.382-68.33 46.689-90.68 18.363h-266.922V-83160l-15.94 84.714-50.066 77.804-76.392 52.197-90.68 18.363h-669v149.844h17l84.714 15.94 77.804 50.066 52.197 76.392 18.363 90.68v305.15h238.322v-350.622l34.803-84.02 64.306-64.306 84.02-34.802h575.621l57.15 57.15v533.75h25.4v-533.75l57.15-57.15h575.621l84.02 34.802 64.306 64.306 34.803 84.02v350.622l-57.15 57.15h-1542.9l-57.15-57.15h-238.322v444.85l-8.556 45.472h246.878v-350.622l57.15-57.15h758.75v533.75l-57.15 57.15h-575.621l-84.02-34.802-64.306-64.306-34.803-84.02h-246.878l-7.384 39.242-50.066 77.804-76.392 52.197-90.68 18.363h-219v232.844h110l84.714 15.94 77.804 50.066 52.197 76.392 18.363 90.68v900l-15.94 84.714-50.066 77.804-76.392 52.197-10.592 2.145 257.313 256.864v-233.205"/><path d="M173420.7-84876.3h1699.6v20h25.4v-20h20v-25.4h-20v-1699.6h20v-25.4h-20v-20h-25.4v20h-1699.6v-20h-25.4v20h-20v25.4h20v1699.6h25.4v-1699.6h1699.6v1699.6h-1745v25.4h20v20h25.4v-20z"/><path fill="none" stroke-width="152.4" d="M173420.7-84876.3h1699.6v20h25.4v-20h20v-25.4h-20v-1699.6h20v-25.4h-20v-20h-25.4v20h-1699.6v-20h-25.4v20h-20v25.4h20v1699.6h25.4v-1699.6h1699.6v1699.6h-1745v25.4h20v20h25.4v-20"/><path d="M175533.2-83338.8h20v-25.4h-20v-20h-25.4v20h-20v25.4h20v20h25.4v-20z"/><path fill="none" stroke-width="152.4" d="M175533.2-83338.8h20v-25.4h-20v-20h-25.4v20h-20v25.4h20v20h25.4v-20"/><path d="M154522.033-75014.156l-354.335-236.759-236.759-354.335-83.139-417.967v-353.566l83.139-417.967 236.759-354.335 354.335-236.759 417.967-83.139 417.967 83.139 110.555 73.87 348.162-348.162 98.884-66.072 61.1-12.154-8.919-3.685-373.391-372.74-202.327-487.258-.461-527.595 201.477-487.611 372.74-373.391 80.009-33.223-6.314-4.063-52.197-76.392-18.363-90.68v-900l15.94-84.714 50.066-77.804 76.392-52.197 90.68-18.363h328v-232.844h-219l-84.714-15.94-77.804-50.066-52.197-76.392-18.363-90.68v-750l15.94-84.714 50.066-77.804 76.392-52.197 90.68-18.363h421v-149.844h-669l-66.922-12.592V-82260l-15.94 84.714-50.066 77.804-76.392 52.197-90.68 18.363h-1900l-84.714-15.94-32.086-20.647v1348.659h27.2v-425.622l34.803-84.02 64.306-64.306 84.02-34.802h575.621l57.15 57.15v608.75h25.4v-608.75l57.15-57.15h575.621l84.02 34.802 64.306 64.306 34.803 84.02v425.622l-57.15 57.15h-1542.9l-57.15-57.15h-27.2v565.322h27.2v-425.622l57.15-57.15h758.75v608.75h25.4v-608.75h758.75l57.15 57.15v425.622l-34.803 84.02-64.306 64.306-84.02 34.802h-575.621l-57.15-57.15h-25.4l-57.15 57.15h-575.621l-84.02-34.802-64.306-64.306-34.803-84.02h-27.2v5143.328h815.83l-39.997-7.956z"/><path fill="none" stroke-width="152.4" d="M154522.033-75014.156l-354.335-236.759-236.759-354.335-83.139-417.967v-353.566l83.139-417.967 236.759-354.335 354.335-236.759 417.967-83.139 417.967 83.139 110.555 73.87 348.162-348.162 98.884-66.072 61.1-12.154-8.919-3.685-373.391-372.74-202.327-487.258-.461-527.595 201.477-487.611 372.74-373.391 80.009-33.223-6.314-4.063-52.197-76.392-18.363-90.68v-900l15.94-84.714 50.066-77.804 76.392-52.197 90.68-18.363h328v-232.844h-219l-84.714-15.94-77.804-50.066-52.197-76.392-18.363-90.68v-750l15.94-84.714 50.066-77.804 76.392-52.197 90.68-18.363h421v-149.844h-669l-66.922-12.592V-82260l-15.94 84.714-50.066 77.804-76.392 52.197-90.68 18.363h-1900l-84.714-15.94-32.086-20.647v1348.659h27.2v-425.622l34.803-84.02 64.306-64.306 84.02-34.802h575.621l57.15 57.15v608.75h25.4v-608.75l57.15-57.15h575.621l84.02 34.802 64.306 64.306 34.803 84.02v425.622l-57.15 57.15h-1542.9l-57.15-57.15h-27.2v565.322h27.2v-425.622l57.15-57.15h758.75v608.75h25.4v-608.75h758.75l57.15 57.15v425.622l-34.803 84.02-64.306 64.306-84.02 34.802h-575.621l-57.15-57.15h-25.4l-57.15 57.15h-575.621l-84.02-34.802-64.306-64.306-34.803-84.02h-27.2v5143.328h815.83l-39.997-7.956"/></g><mask id="_top_mech-mask" fill="#fff" fill-rule="evenodd" stroke="#fff"><path d="M153416-98044h33528v23368h-33528z"/><g id="_top-drl" fill="#000" stroke="#000"><use x="154813" y="-90932" xlink:href="#tool-T1-pad-1075"/><use x="156210" y="-87630" xlink:href="#tool-T1-pad-1075"/><use x="156337" y="-85201" xlink:href="#tool-T1-pad-1075"/><use x="156718" y="-90551" xlink:href="#tool-T1-pad-1075"/><use x="156718" y="-92519" xlink:href="#tool-T1-pad-1075"/><use x="159131" y="-87630" xlink:href="#tool-T1-pad-1075"/><use x="160909" y="-83629" xlink:href="#tool-T1-pad-1075"/><use x="161417" y="-89344" xlink:href="#tool-T1-pad-1075"/><use x="164465" y="-80073" xlink:href="#tool-T1-pad-1075"/><use x="170538" y="-92433" xlink:href="#tool-T1-pad-1075"/><use x="173408" y="-84889" xlink:href="#tool-T1-pad-1075"/><use x="173408" y="-86614" xlink:href="#tool-T1-pad-1075"/><use x="173462" y="-89408" xlink:href="#tool-T1-pad-1075"/><use x="175110" y="-92433" xlink:href="#tool-T1-pad-1075"/><use x="175133" y="-84889" xlink:href="#tool-T1-pad-1075"/><use x="175133" y="-86614" xlink:href="#tool-T1-pad-1075"/><use x="176658" y="-90477" xlink:href="#tool-T1-pad-1075"/><use x="177318" y="-90477" xlink:href="#tool-T1-pad-1075"/><use x="178054" y="-81407" xlink:href="#tool-T1-pad-1075"/><use x="182067" y="-93675" xlink:href="#tool-T1-pad-1075"/><use x="185776" y="-93675" xlink:href="#tool-T1-pad-1075"/><use x="185420" y="-78740" xlink:href="#tool-T2-pad-1076"/><use x="154940" y="-76200" xlink:href="#tool-T3-pad-1077"/><use x="154940" y="-96520" xlink:href="#tool-T3-pad-1077"/><use x="157480" y="-76200" xlink:href="#tool-T3-pad-1077"/><use x="157480" y="-96520" xlink:href="#tool-T3-pad-1077"/><use x="160020" y="-76200" xlink:href="#tool-T3-pad-1077"/><use x="160020" y="-96520" xlink:href="#tool-T3-pad-1077"/><use x="162560" y="-76200" xlink:href="#tool-T3-pad-1077"/><use x="162560" y="-96520" xlink:href="#tool-T3-pad-1077"/><use x="165100" y="-76200" xlink:href="#tool-T3-pad-1077"/><use x="165100" y="-96520" xlink:href="#tool-T3-pad-1077"/><use x="167640" y="-76200" xlink:href="#tool-T3-pad-1077"/><use x="167640" y="-96520" xlink:href="#tool-T3-pad-1077"/><use x="170180" y="-76200" xlink:href="#tool-T3-pad-1077"/><use x="170180" y="-96520" xlink:href="#tool-T3-pad-1077"/><use x="172720" y="-76200" xlink:href="#tool-T3-pad-1077"/><use x="172720" y="-96520" xlink:href="#tool-T3-pad-1077"/><use x="175260" y="-76200" xlink:href="#tool-T3-pad-1077"/><use x="175260" y="-96520" xlink:href="#tool-T3-pad-1077"/><use x="177800" y="-76200" xlink:href="#tool-T3-pad-1077"/><use x="177800" y="-96520" xlink:href="#tool-T3-pad-1077"/><use x="180340" y="-76200" xlink:href="#tool-T3-pad-1077"/><use x="180340" y="-96520" xlink:href="#tool-T3-pad-1077"/><use x="182880" y="-76200" xlink:href="#tool-T3-pad-1077"/><use x="182880" y="-96520" xlink:href="#tool-T3-pad-1077"/><use x="185420" y="-76200" xlink:href="#tool-T3-pad-1077"/><use x="185420" y="-96520" xlink:href="#tool-T3-pad-1077"/></g></mask></defs><g mask="url(#_top_mech-mask)" transform="matrix(1 0 0 -1 0 -172720)"><path fill="currentColor" d="M153416-98044h33528v23368h-33528z" class="_board-fr4"/><use class="_board-cu" xlink:href="#_top-cu"/><defs><g id="_top-sm" fill="currentColor" stroke="currentColor"><use x="163548" y="-84648" xlink:href="#tool-D11-pad-1051"/><use x="163548" y="-85598" xlink:href="#tool-D11-pad-1051"/><use x="163548" y="-86548" xlink:href="#tool-D11-pad-1051"/><use x="160048" y="-86548" xlink:href="#tool-D11-pad-1051"/><use x="160048" y="-85598" xlink:href="#tool-D11-pad-1051"/><use x="160048" y="-84648" xlink:href="#tool-D11-pad-1051"/><use x="185420" y="-76200" xlink:href="#tool-D12-pad-1052"/><use x="182880" y="-76200" xlink:href="#tool-D13-pad-1053"/><use x="180340" y="-76200" xlink:href="#tool-D13-pad-1053"/><use x="177800" y="-76200" xlink:href="#tool-D13-pad-1053"/><use x="175260" y="-76200" xlink:href="#tool-D13-pad-1053"/><use x="172720" y="-76200" xlink:href="#tool-D13-pad-1053"/><use x="170180" y="-76200" xlink:href="#tool-D13-pad-1053"/><use x="167640" y="-76200" xlink:href="#tool-D13-pad-1053"/><use x="165100" y="-76200" xlink:href="#tool-D13-pad-1053"/><use x="162560" y="-76200" xlink:href="#tool-D13-pad-1053"/><use x="160020" y="-76200" xlink:href="#tool-D13-pad-1053"/><use x="157480" y="-76200" xlink:href="#tool-D13-pad-1053"/><use x="154940" y="-76200" xlink:href="#tool-D13-pad-1053"/><use x="160909" y="-83015" xlink:href="#tool-D14-pad-1054"/><use x="160909" y="-80815" xlink:href="#tool-D14-pad-1054"/><use x="182753" y="-78867" xlink:href="#tool-D15-pad-1055"/><use x="154602" y="-80645" xlink:href="#tool-D16-pad-1056"/><use x="156802" y="-80645" xlink:href="#tool-D16-pad-1056"/><use x="176670.5" y="-87501.5" xlink:href="#tool-D17-pad-1057"/><use x="176670.5" y="-87001.5" xlink:href="#tool-D17-pad-1057"/><use x="176670.5" y="-86501.5" xlink:href="#tool-D17-pad-1057"/><use x="176670.5" y="-86001.5" xlink:href="#tool-D17-pad-1057"/><use x="176670.5" y="-85501.5" xlink:href="#tool-D17-pad-1057"/><use x="176670.5" y="-85001.5" xlink:href="#tool-D17-pad-1057"/><use x="176670.5" y="-84501.5" xlink:href="#tool-D17-pad-1057"/><use x="176670.5" y="-84001.5" xlink:href="#tool-D17-pad-1057"/><use x="176020.5" y="-83351.5" xlink:href="#tool-D18-pad-1058"/><use x="175520.5" y="-83351.5" xlink:href="#tool-D18-pad-1058"/><use x="175020.5" y="-83351.5" xlink:href="#tool-D18-pad-1058"/><use x="174520.5" y="-83351.5" xlink:href="#tool-D18-pad-1058"/><use x="174020.5" y="-83351.5" xlink:href="#tool-D18-pad-1058"/><use x="173520.5" y="-83351.5" xlink:href="#tool-D18-pad-1058"/><use x="173020.5" y="-83351.5" xlink:href="#tool-D18-pad-1058"/><use x="172520.5" y="-83351.5" xlink:href="#tool-D18-pad-1058"/><use x="171870.5" y="-84001.5" xlink:href="#tool-D17-pad-1057"/><use x="171870.5" y="-84501.5" xlink:href="#tool-D17-pad-1057"/><use x="171870.5" y="-85001.5" xlink:href="#tool-D17-pad-1057"/><use x="171870.5" y="-85501.5" xlink:href="#tool-D17-pad-1057"/><use x="171870.5" y="-86001.5" xlink:href="#tool-D17-pad-1057"/><use x="171870.5" y="-86501.5" xlink:href="#tool-D17-pad-1057"/><use x="171870.5" y="-87001.5" xlink:href="#tool-D17-pad-1057"/><use x="171870.5" y="-87501.5" xlink:href="#tool-D17-pad-1057"/><use x="172520.5" y="-88151.5" xlink:href="#tool-D18-pad-1058"/><use x="173020.5" y="-88151.5" xlink:href="#tool-D18-pad-1058"/><use x="173520.5" y="-88151.5" xlink:href="#tool-D18-pad-1058"/><use x="174020.5" y="-88151.5" xlink:href="#tool-D18-pad-1058"/><use x="174520.5" y="-88151.5" xlink:href="#tool-D18-pad-1058"/><use x="175020.5" y="-88151.5" xlink:href="#tool-D18-pad-1058"/><use x="175520.5" y="-88151.5" xlink:href="#tool-D18-pad-1058"/><use x="176020.5" y="-88151.5" xlink:href="#tool-D18-pad-1058"/><use x="173408" y="-84889" xlink:href="#tool-D19-pad-1059"/><use x="173408" y="-86614" xlink:href="#tool-D19-pad-1059"/><use x="175133" y="-84889" xlink:href="#tool-D19-pad-1059"/><use x="175133" y="-86614" xlink:href="#tool-D19-pad-1059"/><use x="175194" y="-90551" xlink:href="#tool-D20-pad-1060"/><use x="173294" y="-90551" xlink:href="#tool-D20-pad-1060"/><path d="M159740.8-89390.8h3352.4v-1952.4h-3352.4v1952.4zM159740.8-91790.8h3352.4v-1952.4h-3352.4v1952.4z"/><use x="157723" y="-87660" xlink:href="#tool-D21-pad-1061"/><use x="157723" y="-87010" xlink:href="#tool-D21-pad-1061"/><use x="157723" y="-85060" xlink:href="#tool-D21-pad-1061"/><use x="157723" y="-85710" xlink:href="#tool-D21-pad-1061"/><use x="157723" y="-86360" xlink:href="#tool-D21-pad-1061"/><use x="157113" y="-88822.5" xlink:href="#tool-D22-pad-1062"/><use x="157113" y="-83897.5" xlink:href="#tool-D22-pad-1062"/><use x="154813" y="-89272.5" xlink:href="#tool-D23-pad-1063"/><use x="154813" y="-83447.5" xlink:href="#tool-D23-pad-1063"/><use x="154813" y="-85522.5" xlink:href="#tool-D24-pad-1064"/><use x="154813" y="-87197.5" xlink:href="#tool-D24-pad-1064"/><use x="179942" y="-85649" xlink:href="#tool-D25-pad-1065"/><use x="185442" y="-85649" xlink:href="#tool-D25-pad-1065"/><use x="185442" y="-88849" xlink:href="#tool-D25-pad-1065"/><use x="179942" y="-88849" xlink:href="#tool-D25-pad-1065"/><use x="158811" y="-82169" xlink:href="#tool-D20-pad-1060"/><use x="156911" y="-82169" xlink:href="#tool-D20-pad-1060"/><use x="181742" y="-89535" xlink:href="#tool-D20-pad-1060"/><use x="183642" y="-89535" xlink:href="#tool-D20-pad-1060"/><use x="181742" y="-84963" xlink:href="#tool-D20-pad-1060"/><use x="183642" y="-84963" xlink:href="#tool-D20-pad-1060"/><use x="177988" y="-81915" xlink:href="#tool-D20-pad-1060"/><use x="176088" y="-81915" xlink:href="#tool-D20-pad-1060"/><use x="175194" y="-92075" xlink:href="#tool-D20-pad-1060"/><use x="173294" y="-92075" xlink:href="#tool-D20-pad-1060"/><use x="173294" y="-93599" xlink:href="#tool-D20-pad-1060"/><use x="175194" y="-93599" xlink:href="#tool-D20-pad-1060"/><use x="154940" y="-96520" xlink:href="#tool-D12-pad-1052"/><use x="157480" y="-96520" xlink:href="#tool-D13-pad-1053"/><use x="160020" y="-96520" xlink:href="#tool-D13-pad-1053"/><use x="162560" y="-96520" xlink:href="#tool-D13-pad-1053"/><use x="165100" y="-96520" xlink:href="#tool-D13-pad-1053"/><use x="167640" y="-96520" xlink:href="#tool-D13-pad-1053"/><use x="170180" y="-96520" xlink:href="#tool-D13-pad-1053"/><use x="172720" y="-96520" xlink:href="#tool-D13-pad-1053"/><use x="175260" y="-96520" xlink:href="#tool-D13-pad-1053"/><use x="177800" y="-96520" xlink:href="#tool-D13-pad-1053"/><use x="180340" y="-96520" xlink:href="#tool-D13-pad-1053"/><use x="182880" y="-96520" xlink:href="#tool-D13-pad-1053"/><use x="185420" y="-96520" xlink:href="#tool-D13-pad-1053"/><use x="170645" y="-89789" xlink:href="#tool-D16-pad-1056"/><use x="168445" y="-89789" xlink:href="#tool-D16-pad-1056"/><use x="177038" y="-93683" xlink:href="#tool-D14-pad-1054"/><use x="177038" y="-91483" xlink:href="#tool-D14-pad-1054"/><use x="178689" y="-93683" xlink:href="#tool-D14-pad-1054"/><use x="178689" y="-91483" xlink:href="#tool-D14-pad-1054"/><use x="158750" y="-90678" xlink:href="#tool-D26-pad-1066"/><use x="158750" y="-92578" xlink:href="#tool-D26-pad-1066"/><use x="154749.5" y="-91633" xlink:href="#tool-D26-pad-1066"/><use x="154749.5" y="-93533" xlink:href="#tool-D26-pad-1066"/><use x="168445" y="-91440" xlink:href="#tool-D16-pad-1056"/><use x="170645" y="-91440" xlink:href="#tool-D16-pad-1056"/><use x="185420" y="-78740" xlink:href="#tool-D27-pad-1067"/><use x="157243" y="-91967" xlink:href="#tool-D28-pad-1068"/><use x="157243" y="-91567" xlink:href="#tool-D28-pad-1068"/><use x="157243" y="-91167" xlink:href="#tool-D28-pad-1068"/><use x="156193" y="-91167" xlink:href="#tool-D28-pad-1068"/><use x="156193" y="-91567" xlink:href="#tool-D28-pad-1068"/><use x="156193" y="-91967" xlink:href="#tool-D28-pad-1068"/><use x="156718" y="-91567" xlink:href="#tool-D29-pad-1069"/><use x="156718" y="-94107" xlink:href="#tool-D15-pad-1055"/><use x="156718" y="-78867" xlink:href="#tool-D15-pad-1055"/><use x="185734" y="-91508" xlink:href="#tool-D30-pad-1070"/><use x="180534" y="-91508" xlink:href="#tool-D30-pad-1070"/><use x="180534" y="-93658" xlink:href="#tool-D30-pad-1070"/><use x="185734" y="-93658" xlink:href="#tool-D30-pad-1070"/><use x="163576" y="-80032.86" xlink:href="#tool-D31-pad-1071"/><use x="163576" y="-83035.14" xlink:href="#tool-D31-pad-1071"/><use x="165354" y="-92433.14" xlink:href="#tool-D31-pad-1071"/><use x="165354" y="-89430.86" xlink:href="#tool-D31-pad-1071"/></g><mask id="_top-sm_mask" color="#000"><path fill="#fff" d="M153416-98044h33528v23368h-33528z"/><use xlink:href="#_top-sm"/></mask><mask id="_top-cu_finish-mask" color="#fff"><use xlink:href="#_top-cu"/></mask></defs><g mask="url(#_top-sm_mask)"><path fill="currentColor" d="M153416-98044h33528v23368h-33528z" class="_board-sm"/><g id="_top-ss" fill="currentColor" stroke="currentColor" class="_board-ss"><path fill="none" stroke-width="150" d="M161048-84098h1500m0 0v-3000m0 0h-1500m0 0v3000m536 2683v-1000m-1350 0v1000m-4032 95h-1000m0 1350h1000m15443.5-8406.5v525m5250 4725v-525m-5250 525v-525m5250-4725h-525m525 5250h-525m-4725 0h525m-525-5250h525M174594-91151h-700m0 1200h700m-14977 484v-4200m3600 4200v-4200m23225 7918h250m-250-3000h250m-8000 0h250m-250 3000h250m2500-2500a250 250 0 0 1-500 0 250 250 0 0 1 500 0m-500 2500h3500m-3500-3000h3500m2250 0v3000m-8000-3000v3000m-20481 2980h-700m0 1200h700m24131-7366h700m0-1200h-700m0 5772h700m0-1200h-700m-4954 3048h-700m0 1200h700m-2794-11360h-700m0 1200h700m-700-1524h700m0-1200h-700m-4849 5085h1000m0-1350h-1000m8668-1619v-1000m-1350 0v1000m3001 0v-1000m-1350 0v1000m-18664 805v-700m-1200 0v700m-2800.5-955v-700m-1200 0v700"/><path fill="none" stroke-width="100" d="M169845-90940v-1000m-600 1000v-1000m0 0l500 500m0 0l-500 500m-1600-1200h3800m0 1400h-3800"/><path fill="none" stroke-width="50" d="M157818-91067v-200m-200 100l200 100m0-200l-200 100m-300 200h-1200m1200-1200h-1200"/><path fill="none" stroke-width="150" d="M182734-93683h800m-800 2200h800m1100-1100a1100 1100 0 0 1-1100 1100m0-2200a1100 1100 0 0 1 1100 1100m-3000 0a1100 1100 0 0 1 1100-1100m0 2200a1100 1100 0 0 1-1100-1100m3700-600v1200m-4400-1200v1200m0 1000h4400m0-3200h-4400m-16458 11899h750m-3200-900v900m50-900h-50m50 900v-900m100 900h-100m100-900v900m100-900h-100m100 900v-900m100 900h-100m100-900v900m100-900h-100m100 900v-900m50 900h-50m100 0h-100m100-900v900m2550-900v900m-100-900h100m-100 900v-900m-100 900h100m-100-900v900m-100-900h100m-100 900v-900m-100 900h100m-100-900v900m-100-900h100m-100 900v-900m-100 900h100m-100-900v900m-1900 0v-900m-650 900h700m1800-450a1500 1500 0 0 1 0 2400m-1800 0a1500 1500 0 0 1 0-2400m2550 2100l-750 750m750-3300v2550m-750-2550h750m-2550 0h-750m0 0v2550m0 0l750 750m2551-3301v2540m0 0l-762 762m-1778 0l-762-762m2529-9537h-750m3200 900v-900m-50 900h50m-50-900v900m-100-900h100m-100 900v-900m-100 900h100m-100-900v900m-100-900h100m-100 900v-900m-100 900h100m-100-900v900m-50-900h50m-100 0h100m-100 900v-900m-2550 900v-900m100 900h-100m100-900v900m100-900h-100m100 900v-900m100 900h-100m100-900v900m100-900h-100m100 900v-900m100 900h-100m100-900v900m100-900h-100m100 900v-900m1900 0v900m650-900h-700m-1800 450a1500 1500 0 0 1 0-2400m1800 0a1500 1500 0 0 1 0 2400m-2550-2100l750-750m-750 3300v-2550m750 2550h-750m2550 0h750m0 0v-2550m0 0l-750-750m-2551 3301v-2540m0 0l762-762m1778 0l762 762m-5754.619 5461.095h809.524l95.238 47.619 47.619 47.619 47.619 95.238v190.477l-47.619 95.238-47.619 47.619-95.238 47.619h-809.524m95.238 428.571l-47.619 47.619-47.619 95.238v238.096l47.619 95.238 47.619 47.619 95.238 47.619h95.238l142.857-47.619 571.429-571.429v619.048m-1508.047 4961.095h-476.191v1000m1333.334-1000h-571.429m285.714 0v1000l-95.238-142.857-95.238-95.238-95.238-47.619m-6508.714-587.286L154186-79224.19m-238.095-476.191v1000h380.953l95.238-47.619 47.619-47.619 47.619-95.238v-142.857l-47.619-95.238-47.619-47.619-95.238-47.619h-380.953m1523.81-476.191h-571.429m285.714 0v1000l-95.238-142.857-95.238-95.238-95.238-47.619m15787.809-2889.286v-809.524l47.619-95.238 47.619-47.619 95.238-47.619h190.477l95.238 47.619 47.619 47.619 47.619 95.238v809.524m380.952 0h619.048l-333.334-380.952h142.858l95.238-47.619 47.619-47.619 47.619-95.239v-238.095l-47.619-95.238-47.619-47.619-95.238-47.619h-285.715l-95.238 47.619-47.619 47.619m2436.858-6858l-47.619-47.619-142.857-47.619h-95.238l-142.858 47.619-95.238 95.238-47.619 95.238-47.619 190.476v142.858l47.619 190.476 47.619 95.238 95.238 95.238 142.858 47.619h95.238l142.857-47.619 47.619-47.619m476.19-904.762H174744l95.239 47.619 47.619 47.619 95.238 142.857 47.619 190.476v380.953l-47.619 95.238-47.619 47.619-95.238 47.619h-190.477l-95.238-47.619-47.619-47.619-47.619-95.238v-238.095l47.619-95.238 47.619-47.62 95.238-47.619h190.477l95.238 47.619 47.619 47.62 47.619 95.238m-13779.381-6032.429h-476.191v1000m761.905-95.238l47.619 47.619 95.238 47.619h238.096l95.238-47.619 47.619-47.619 47.619-95.238v-95.238l-47.619-142.857-571.429-571.429h619.048m18946.999 9128l666.667-1000m0 1000l-666.667-1000m1571.429 0h-571.429m285.714 0v1000l-95.238-142.857-95.238-95.238-95.238-47.619m-23598.142 5095.952l-47.619-47.619-142.857-47.619h-95.238l-142.858 47.619-95.238 95.238-47.619 95.238-47.619 190.476v142.858l47.619 190.476 47.619 95.238 95.238 95.238 142.858 47.619h95.238l142.857-47.619 47.619-47.619m904.762 95.238h-476.191l-47.619-476.19 47.619 47.619 95.238 47.619h238.096l95.238-47.619 47.619-47.619 47.619-95.239v-238.095l-47.619-95.238-47.619-47.619-95.238-47.619h-238.096l-95.238 47.619-47.619 47.619m23688.048-7239l-47.619-47.619-142.857-47.619h-95.238l-142.858 47.619-95.238 95.238-47.619 95.238-47.619 190.476v142.858l47.619 190.476 47.619 95.238 95.238 95.238 142.858 47.619h95.238l142.857-47.619 47.619-47.619m857.143 95.238H183192l-95.238-47.619-47.619-47.619-95.238-142.857-47.619-190.476v-380.953l47.619-95.238 47.619-47.619 95.238-47.619h190.477l95.238 47.619 47.619 47.619 47.619 95.238v238.095l-47.619 95.239-47.619 47.619-95.238 47.619h-190.477l-95.238-47.619-47.619-47.619-47.619-95.239m-380.952 4111.667l-47.619-47.619-142.857-47.619h-95.238l-142.858 47.619-95.238 95.238-47.619 95.238-47.619 190.476v142.858l47.619 190.476 47.619 95.238 95.238 95.238 142.858 47.619h95.238l142.857-47.619 47.619-47.619m333.333 95.238h666.667l-428.572-1000m-6225.428 3143.238l-47.619-47.619-142.857-47.619h-95.238l-142.858 47.619-95.238 95.238-47.619 95.238-47.619 190.476v142.858l47.619 190.476 47.619 95.238 95.238 95.238 142.858 47.619h95.238l142.857-47.619 47.619-47.619m571.428-333.333l-95.238 47.619-47.619 47.619-47.619 95.238v47.619l47.619 95.238 47.619 47.619 95.238 47.619h190.477l95.238-47.619 47.619-47.619 47.619-95.238v-47.619l-47.619-95.238-47.619-47.619-95.238-47.619h-190.477l-95.238-47.619-47.619-47.619-47.619-95.239v-190.476l47.619-95.238 47.619-47.619 95.238-47.619h190.477l95.238 47.619 47.619 47.619 47.619 95.238v190.476l-47.619 95.239-47.619 47.619-95.238 47.619m-5191.096-12191.905l47.619-47.619 47.619-142.857v-95.238l-47.619-142.858-95.238-95.238-95.238-47.619-190.476-47.619h-142.858l-190.476 47.619-95.238 47.619-95.238 95.238-47.619 142.858v95.238l47.619 142.857 47.619 47.619m904.762 952.381v-571.429m0 285.714h-1000l142.857-95.238 95.238-95.238 47.619-95.238m-285.714 1190.476v95.239l47.619 95.238 47.619 47.619 95.238 47.619 190.476 47.619h238.096l190.476-47.619 95.238-47.619 47.619-47.619 47.619-95.238v-95.239l-47.619-95.238-47.619-47.619-95.238-47.619-190.476-47.619h-238.096l-190.476 47.619-95.238 47.619-47.619 47.619-47.619 95.238m2063.762-4079.714l-47.619-47.619-142.857-47.619h-95.238l-142.858 47.619-95.238 95.238-47.619 95.238-47.619 190.476v142.858l47.619 190.476 47.619 95.238 95.238 95.238 142.858 47.619h95.238l142.857-47.619 47.619-47.619m952.381-904.762h-571.429m285.714 0v1000l-95.238-142.857-95.238-95.238-95.238-47.619m1523.81-714.286h-571.429m285.714 0v1000l-95.238-142.857-95.238-95.238-95.238-47.619m-5556.142 5762.714L169045-88368.19m-238.095-476.191v1000h380.953l95.238-47.619 47.619-47.619 47.619-95.238v-142.857l-47.619-95.238-47.619-47.619-95.238-47.619h-380.953m952.381 428.571l47.619 47.619 95.238 47.619h238.096l95.238-47.619 47.619-47.619 47.619-95.238v-95.238l-47.619-142.857-571.429-571.429h619.048m6413.619-1778L176411-90146.19m-238.095-476.191v1000h380.953l95.238-47.619 47.619-47.619 47.619-95.238v-142.857l-47.619-95.238-47.619-47.619-95.238-47.619h-380.953m904.762 523.809h619.048l-333.334-380.952h142.858l95.238-47.619 47.619-47.619 47.619-95.239v-238.095l-47.619-95.238-47.619-47.619-95.238-47.619h-285.715l-95.238 47.619-47.619 47.619m1317.667-4921.238L178062-94972.19m-238.095-476.191v1000h380.953l95.238-47.619 47.619-47.619 47.619-95.238v-142.857l-47.619-95.238-47.619-47.619-95.238-47.619h-380.953m1428.572 190.476v-666.667m-238.096 1047.619l-238.095-714.286h619.048m-20812 15.905l-47.619-47.619-142.857-47.619h-95.238l-142.858 47.619-95.238 95.238-47.619 95.238-47.619 190.476v142.858l47.619 190.476 47.619 95.238 95.238 95.238 142.858 47.619h95.238l142.857-47.619 47.619-47.619m380.952 0l47.619 47.619 95.238 47.619h238.096l95.238-47.619 47.619-47.619 47.619-95.238v-95.238l-47.619-142.857-571.429-571.429h619.048m-4889.381 95.238l-47.619-47.619-142.857-47.619h-95.238l-142.858 47.619-95.238 95.238-47.619 95.238-47.619 190.476v142.858l47.619 190.476 47.619 95.238 95.238 95.238 142.858 47.619h95.238l142.857-47.619 47.619-47.619m952.381-904.762h-571.429m285.714 0v1000l-95.238-142.857-95.238-95.238-95.238-47.619m13779.619 1190.714v1000H169045l142.858-47.619 95.238-95.238 47.619-95.238 47.619-190.476v-142.858l-47.619-190.476-47.619-95.238-95.238-95.238-142.858-47.619h-238.095m1523.81 0h-571.429m285.714 0v1000l-95.238-142.857-95.238-95.238-95.238-47.619m-13803.191 2825.714v-809.524l47.619-95.238 47.619-47.619 95.238-47.619h190.477l95.238 47.619 47.619 47.619 47.619 95.238v809.524m1000-1000h-571.429m285.714 0v1000l-95.238-142.857-95.238-95.238-95.238-47.619m25416-2952.667l142.857-47.619h238.096l95.238 47.619 47.619 47.619 47.619 95.238v95.238l-47.619 95.238-47.619 47.619-95.238 47.62-190.477 47.619-95.238 47.619-47.619 47.619-47.619 95.238v95.238l47.619 95.238 47.619 47.619 95.238 47.619h238.096l142.857-47.619m952.381-952.381h-571.429m285.714 0v1000l-95.238-142.857-95.238-95.238-95.238-47.619m-22185.333 10620.429l47.619-47.619 47.619-142.857v-95.238l-47.619-142.858-95.238-95.238-95.238-47.619-190.476-47.619h-142.858l-190.476 47.619-95.238 47.619-95.238 95.238-47.619 142.858v95.238l47.619 142.857 47.619 47.619m-95.238 333.333v619.048l380.952-333.334v142.858l47.619 95.238 47.619 47.619 95.239 47.619h238.095l95.238-47.619 47.619-47.619 47.619-95.238v-285.715l-47.619-95.238-47.619-47.619m4048.191-13731.81l-47.619-47.619-142.857-47.619h-95.238l-142.858 47.619-95.238 95.238-47.619 95.238-47.619 190.476v142.858l47.619 190.476 47.619 95.238 95.238 95.238 142.858 47.619h95.238l142.857-47.619 47.619-47.619m857.143-238.095v-666.667m-238.096 1047.619l-238.095-714.286h619.048"/></g></g><use class="_board-cf" mask="url(#_top-cu_finish-mask)" xlink:href="#_top-sm"/></g><style>._board-fr4{color:#4d542c}._board-cu{color:#d3d3d3}._board-cf{color:#daa520}._board-sm{color:#040;opacity:.9}._board-ss{color:#fff}._board-sp{color:silver;opacity:0}._board-out{color:#000}</style></svg>