<svg xmlns="http://www.w3.org/2000/svg" id="_bottom" stroke-width="0" xmlns:xlink="http://www.w3.org/1999/xlink" stroke-linecap="round" stroke-linejoin="round" viewBox="2000 4000 1250 1250"><defs><circle id="tool-D38-pad-1104" r="21.65"/><circle id="tool-D39-pad-1105" r="29.55"/><path id="tool-D40-pad-1106" d="M-29.55-29.55h59.1v59.1h-59.1z"/><circle id="tool-D41-pad-1107" r="17.7"/><circle id="tool-D42-pad-1108" r="62.5"/><circle id="tool-D43-pad-1109" r="9"/><circle id="tool-D47-pad-1113" r="39.35"/><circle id="tool-D47-pad-1218" r="39.35"/><circle id="tool-D70-pad-1307" r="24.15"/><circle id="tool-D71-pad-1308" r="32.55"/><path id="tool-D72-pad-1309" d="M-32.55-32.55h65.1v65.1h-65.1z"/><circle id="tool-D73-pad-1310" r="20.7"/><circle id="tool-D74-pad-1311" r="66.5"/><circle id="tool-D75-pad-1312" r="41.85"/><circle id="tool-T1-pad-1557" r="4"/><circle id="tool-T2-pad-1558" r="17.7"/><circle id="tool-T3-pad-1559" r="17.7"/><circle id="tool-T4-pad-1560" r="21.65"/><circle id="tool-T5-pad-1561" r="62.5"/><g id="_bottom-cu" fill="currentColor" stroke="currentColor"><path fill="none" stroke-width="12" d="M2395 4243l155 155m-218-155h63m155 155v2m150-89v89l1-1m-1-88l28-28m0-133v133m-254 592.3l25.3-25.3h50.7"/><path fill="none" stroke-width="5" d="M2366 4491l67-67m0-96v96m267 355v71m-51-122l51 51m-51-122.2v71.2m0-71.2l17-17m34 2.4v57.8m-22-79.8l22 22m-35-57.2l35-35m-35 35v15.5m518 61.5v197m-22.5-219.5l22.5 22.5m-70-22.5h47.5m-638 116.5h20.5m58.2-252v231m-58.2 21l7-7m0-49v49m275 391l49-49m0-90v90m-49-103v52m-318-253h85m-80.9-10h85m24.8-260v201m477.1 226l85-85m-356 95l47 47m-73-37l24 24m-132-44h405m-409.1 10H2827m-142.3 10H2801m-204.9-187l24.9 24.9m-29-14.9l19 19m20-54v75.7m-1.5 1.5l1.5-1.5m-10-25.8v21.6m-1.5 1.5l1.5-1.5m-10-17.5v13.4m-1.5 1.5l1.5-1.5m-1.5 1.5v67.9m10-63.8v59.6m10-55.4v51.3l63.5 63.5m-73.5-59.4l69.4 69.4m-79.4-65.2l75.2 75.2m151.3-403l57.8 57.8h69.2M2464 5105h41m45-563.3v8.3m-121.8-29.2v99.5m48.8-72.3l16-16m-16 16v194.9l34.1 34.1m-44.1-243v213m0-213l26-26m-26 239l40 40m-78.8-166.7l17.8 17.9V5087l18 18m-6.5-613.5h42.3m-71.6 29.3l29.3-29.3m42.3 0l50.2 50.2m291.5-154.2l38.5 38.5.5-.5m-.5.5h2"/><path fill="none" stroke-width="6" d="M2182 4719l73 73m-73-360.8V4719m0-287.8l25.4-25.4m-42.4 326.6l69 69m-69-402.4v333.4m0-333.4l42.4-42.4M2255 4792v14m-21 21l21-21"/><path fill="none" stroke-width="14" d="M2140 4360l52.6-52.6m-52.6 479l91.8 91.8M2140 4360v426.4m811-30.4h116.5m-116.5-77.2v77.2"/><use x="2219.7" y="4159.8" xlink:href="#tool-D38-pad-1104"/><use x="2219.7" y="4504.2" xlink:href="#tool-D38-pad-1104"/><use x="2925" y="5140" xlink:href="#tool-D39-pad-1105"/><use x="2925" y="5040" xlink:href="#tool-D39-pad-1105"/><use x="2825" y="5140" xlink:href="#tool-D39-pad-1105"/><use x="2825" y="5040" xlink:href="#tool-D39-pad-1105"/><use x="2725" y="5140" xlink:href="#tool-D39-pad-1105"/><use x="3025" y="5040" xlink:href="#tool-D39-pad-1105"/><use x="3025" y="5140" xlink:href="#tool-D39-pad-1105"/><use x="2725" y="5040" xlink:href="#tool-D40-pad-1106"/><use x="2330" y="5070" xlink:href="#tool-D41-pad-1107"/><use x="2480" y="5070" xlink:href="#tool-D41-pad-1107"/><use x="2125" y="5130" xlink:href="#tool-D42-pad-1108"/><use x="3130" y="4120" xlink:href="#tool-D42-pad-1108"/><use x="2271.7" y="4537" xlink:href="#tool-D43-pad-1109"/><use x="2366" y="4491" xlink:href="#tool-D43-pad-1109"/><use x="2308" y="4855" xlink:href="#tool-D43-pad-1109"/><use x="2115" y="4906" xlink:href="#tool-D43-pad-1109"/><use x="2231.8" y="4878.2" xlink:href="#tool-D43-pad-1109"/><use x="2512" y="4240" xlink:href="#tool-D43-pad-1109"/><use x="2545" y="4232" xlink:href="#tool-D43-pad-1109"/><use x="2207.4" y="4405.8" xlink:href="#tool-D43-pad-1109"/><use x="2207.4" y="4356.6" xlink:href="#tool-D43-pad-1109"/><use x="2192.6" y="4307.4" xlink:href="#tool-D43-pad-1109"/><use x="2433" y="4328" xlink:href="#tool-D43-pad-1109"/><use x="2234" y="4801.4" xlink:href="#tool-D43-pad-1109"/><use x="2234" y="4827" xlink:href="#tool-D43-pad-1109"/><use x="3067.5" y="4756" xlink:href="#tool-D43-pad-1109"/><use x="2886" y="4657" xlink:href="#tool-D43-pad-1109"/><use x="2951" y="4678.8" xlink:href="#tool-D43-pad-1109"/><use x="3028.2" y="4592.8" xlink:href="#tool-D43-pad-1109"/><use x="3113" y="4639.5" xlink:href="#tool-D43-pad-1109"/><use x="3153" y="4748.6" xlink:href="#tool-D43-pad-1109"/><use x="3112.8" y="4678.8" xlink:href="#tool-D43-pad-1109"/><use x="2621" y="4718" xlink:href="#tool-D43-pad-1109"/><use x="2601.2" y="4504" xlink:href="#tool-D43-pad-1109"/><use x="2620.9" y="4517" xlink:href="#tool-D43-pad-1109"/><use x="2305" y="5105" xlink:href="#tool-D43-pad-1109"/><use x="2355" y="5105" xlink:href="#tool-D43-pad-1109"/><use x="2405" y="5105" xlink:href="#tool-D43-pad-1109"/><use x="2728" y="4150" xlink:href="#tool-D43-pad-1109"/><use x="2665" y="4600.5" xlink:href="#tool-D43-pad-1109"/><use x="2666" y="4639.8" xlink:href="#tool-D43-pad-1109"/><use x="2678" y="4620.2" xlink:href="#tool-D43-pad-1109"/><use x="2583" y="4892" xlink:href="#tool-D43-pad-1109"/><use x="2411" y="4855" xlink:href="#tool-D43-pad-1109"/><use x="2295" y="4692.7" xlink:href="#tool-D43-pad-1109"/><use x="2330" y="4514.7" xlink:href="#tool-D43-pad-1109"/><use x="2911" y="4327" xlink:href="#tool-D43-pad-1109"/><use x="3171" y="4298" xlink:href="#tool-D43-pad-1109"/><use x="3005" y="4209" xlink:href="#tool-D43-pad-1109"/><use x="2895" y="4209" xlink:href="#tool-D43-pad-1109"/><use x="2895" y="4791" xlink:href="#tool-D43-pad-1109"/><use x="3005" y="4791" xlink:href="#tool-D43-pad-1109"/><use x="2655" y="4230.7" xlink:href="#tool-D43-pad-1109"/><use x="2705" y="4210" xlink:href="#tool-D43-pad-1109"/><use x="2618.4" y="4205.6" xlink:href="#tool-D43-pad-1109"/><use x="2440" y="4230.7" xlink:href="#tool-D43-pad-1109"/><use x="2680.3" y="4462.7" xlink:href="#tool-D43-pad-1109"/><use x="2610" y="4405" xlink:href="#tool-D43-pad-1109"/><use x="2780" y="4770" xlink:href="#tool-D43-pad-1109"/><use x="2780" y="4690" xlink:href="#tool-D43-pad-1109"/><use x="2332" y="4243" xlink:href="#tool-D43-pad-1109"/><use x="2850" y="4771" xlink:href="#tool-D43-pad-1109"/><use x="2850" y="4229" xlink:href="#tool-D43-pad-1109"/><use x="2836" y="4561" xlink:href="#tool-D43-pad-1109"/><use x="2305" y="5036" xlink:href="#tool-D43-pad-1109"/><use x="2405" y="5036" xlink:href="#tool-D43-pad-1109"/><use x="2474" y="4875.3" xlink:href="#tool-D43-pad-1109"/><use x="2601.2" y="4735" xlink:href="#tool-D43-pad-1109"/><use x="2522.5" y="4756" xlink:href="#tool-D43-pad-1109"/><use x="2631" y="4752" xlink:href="#tool-D43-pad-1109"/><use x="2493" y="4532" xlink:href="#tool-D43-pad-1109"/><use x="2493" y="4508" xlink:href="#tool-D43-pad-1109"/><use x="2646" y="4836" xlink:href="#tool-D43-pad-1109"/><use x="2682" y="4796" xlink:href="#tool-D43-pad-1109"/><use x="2771" y="4656" xlink:href="#tool-D43-pad-1109"/><use x="3090" y="4279" xlink:href="#tool-D43-pad-1109"/><use x="2767" y="4155" xlink:href="#tool-D43-pad-1109"/><use x="2768" y="4845" xlink:href="#tool-D43-pad-1109"/><use x="2963" y="4618.8" xlink:href="#tool-D43-pad-1109"/><use x="3144" y="4464" xlink:href="#tool-D43-pad-1109"/><use x="2505" y="5105" xlink:href="#tool-D43-pad-1109"/><use x="2424" y="4738.3" xlink:href="#tool-D43-pad-1109"/><use x="2428.2" y="4620.2" xlink:href="#tool-D43-pad-1109"/><use x="2841.5" y="4387.5" xlink:href="#tool-D43-pad-1109"/><use x="2880" y="4426" xlink:href="#tool-D43-pad-1109"/><use x="2550" y="4400" xlink:href="#tool-D47-pad-1113"/><use x="2550" y="4850" xlink:href="#tool-D47-pad-1113"/><use x="2700" y="4550" xlink:href="#tool-D47-pad-1113"/><use x="2700" y="4700" xlink:href="#tool-D47-pad-1113"/><use x="2700" y="4850" xlink:href="#tool-D47-pad-1113"/><use x="2550" y="4550" xlink:href="#tool-D47-pad-1113"/><use x="2550" y="4700" xlink:href="#tool-D47-pad-1113"/><use x="2700" y="4400" xlink:href="#tool-D47-pad-1113"/></g><mask id="_bottom_mech-mask" fill="#fff" fill-rule="evenodd" stroke="#fff"><path d="M3150 4000H2100a100 100 0 0 0-100 100v1050a100 100 0 0 0 100 100h1050a100 100 0 0 0 100-100V4100a100 100 0 0 0-100-100"/><g id="_bottom-drl" fill="#000" stroke="#000"><use x="2192.6" y="4307.4" xlink:href="#tool-T1-pad-1557"/><use x="2207.4" y="4356.6" xlink:href="#tool-T1-pad-1557"/><use x="2207.4" y="4405.8" xlink:href="#tool-T1-pad-1557"/><use x="2271.7" y="4537" xlink:href="#tool-T1-pad-1557"/><use x="2330" y="4514.7" xlink:href="#tool-T1-pad-1557"/><use x="2366" y="4491" xlink:href="#tool-T1-pad-1557"/><use x="2493" y="4508" xlink:href="#tool-T1-pad-1557"/><use x="2493" y="4532" xlink:href="#tool-T1-pad-1557"/><use x="2601.2" y="4504" xlink:href="#tool-T1-pad-1557"/><use x="2620.9" y="4517" xlink:href="#tool-T1-pad-1557"/><use x="2680.3" y="4462.7" xlink:href="#tool-T1-pad-1557"/><use x="2610" y="4405" xlink:href="#tool-T1-pad-1557"/><use x="2618.4" y="4205.6" xlink:href="#tool-T1-pad-1557"/><use x="2655" y="4230.7" xlink:href="#tool-T1-pad-1557"/><use x="2705" y="4210" xlink:href="#tool-T1-pad-1557"/><use x="2728" y="4150" xlink:href="#tool-T1-pad-1557"/><use x="2767" y="4155" xlink:href="#tool-T1-pad-1557"/><use x="2850" y="4229" xlink:href="#tool-T1-pad-1557"/><use x="2895" y="4209" xlink:href="#tool-T1-pad-1557"/><use x="3005" y="4209" xlink:href="#tool-T1-pad-1557"/><use x="3090" y="4279" xlink:href="#tool-T1-pad-1557"/><use x="2911" y="4327" xlink:href="#tool-T1-pad-1557"/><use x="2841.5" y="4387.5" xlink:href="#tool-T1-pad-1557"/><use x="2880" y="4426" xlink:href="#tool-T1-pad-1557"/><use x="2836" y="4561" xlink:href="#tool-T1-pad-1557"/><use x="2886" y="4657" xlink:href="#tool-T1-pad-1557"/><use x="2951" y="4678.8" xlink:href="#tool-T1-pad-1557"/><use x="2963" y="4618.8" xlink:href="#tool-T1-pad-1557"/><use x="3028.2" y="4592.8" xlink:href="#tool-T1-pad-1557"/><use x="3113" y="4639.5" xlink:href="#tool-T1-pad-1557"/><use x="3112.8" y="4678.8" xlink:href="#tool-T1-pad-1557"/><use x="2771" y="4656" xlink:href="#tool-T1-pad-1557"/><use x="2666" y="4639.8" xlink:href="#tool-T1-pad-1557"/><use x="2678" y="4620.2" xlink:href="#tool-T1-pad-1557"/><use x="2665" y="4600.5" xlink:href="#tool-T1-pad-1557"/><use x="2428.2" y="4620.2" xlink:href="#tool-T1-pad-1557"/><use x="2433" y="4328" xlink:href="#tool-T1-pad-1557"/><use x="2440" y="4230.7" xlink:href="#tool-T1-pad-1557"/><use x="2512" y="4240" xlink:href="#tool-T1-pad-1557"/><use x="2545" y="4232" xlink:href="#tool-T1-pad-1557"/><use x="2332" y="4243" xlink:href="#tool-T1-pad-1557"/><use x="3171" y="4298" xlink:href="#tool-T1-pad-1557"/><use x="3144" y="4464" xlink:href="#tool-T1-pad-1557"/><use x="3153" y="4748.6" xlink:href="#tool-T1-pad-1557"/><use x="3067.5" y="4756" xlink:href="#tool-T1-pad-1557"/><use x="3005" y="4791" xlink:href="#tool-T1-pad-1557"/><use x="2895" y="4791" xlink:href="#tool-T1-pad-1557"/><use x="2850" y="4771" xlink:href="#tool-T1-pad-1557"/><use x="2780" y="4770" xlink:href="#tool-T1-pad-1557"/><use x="2780" y="4690" xlink:href="#tool-T1-pad-1557"/><use x="2768" y="4845" xlink:href="#tool-T1-pad-1557"/><use x="2646" y="4836" xlink:href="#tool-T1-pad-1557"/><use x="2682" y="4796" xlink:href="#tool-T1-pad-1557"/><use x="2631" y="4752" xlink:href="#tool-T1-pad-1557"/><use x="2621" y="4718" xlink:href="#tool-T1-pad-1557"/><use x="2601.2" y="4735" xlink:href="#tool-T1-pad-1557"/><use x="2522.5" y="4756" xlink:href="#tool-T1-pad-1557"/><use x="2424" y="4738.3" xlink:href="#tool-T1-pad-1557"/><use x="2411" y="4855" xlink:href="#tool-T1-pad-1557"/><use x="2474" y="4875.3" xlink:href="#tool-T1-pad-1557"/><use x="2583" y="4892" xlink:href="#tool-T1-pad-1557"/><use x="2505" y="5105" xlink:href="#tool-T1-pad-1557"/><use x="2405" y="5105" xlink:href="#tool-T1-pad-1557"/><use x="2355" y="5105" xlink:href="#tool-T1-pad-1557"/><use x="2305" y="5105" xlink:href="#tool-T1-pad-1557"/><use x="2305" y="5036" xlink:href="#tool-T1-pad-1557"/><use x="2405" y="5036" xlink:href="#tool-T1-pad-1557"/><use x="2308" y="4855" xlink:href="#tool-T1-pad-1557"/><use x="2231.8" y="4878.2" xlink:href="#tool-T1-pad-1557"/><use x="2234" y="4827" xlink:href="#tool-T1-pad-1557"/><use x="2234" y="4801.4" xlink:href="#tool-T1-pad-1557"/><use x="2295" y="4692.7" xlink:href="#tool-T1-pad-1557"/><use x="2115" y="4906" xlink:href="#tool-T1-pad-1557"/><use x="2725" y="5040" xlink:href="#tool-T2-pad-1558"/><use x="2825" y="5040" xlink:href="#tool-T2-pad-1558"/><use x="2925" y="5040" xlink:href="#tool-T2-pad-1558"/><use x="2925" y="5140" xlink:href="#tool-T2-pad-1558"/><use x="2825" y="5140" xlink:href="#tool-T2-pad-1558"/><use x="2725" y="5140" xlink:href="#tool-T2-pad-1558"/><use x="3025" y="5140" xlink:href="#tool-T2-pad-1558"/><use x="3025" y="5040" xlink:href="#tool-T2-pad-1558"/><use x="2330" y="5070" xlink:href="#tool-T3-pad-1559"/><use x="2480" y="5070" xlink:href="#tool-T3-pad-1559"/><use x="2219.7" y="4159.8" xlink:href="#tool-T4-pad-1560"/><use x="2219.7" y="4504.2" xlink:href="#tool-T4-pad-1560"/><use x="3130" y="4120" xlink:href="#tool-T5-pad-1561"/><use x="2125" y="5130" xlink:href="#tool-T5-pad-1561"/></g></mask></defs><g mask="url(#_bottom_mech-mask)" transform="rotate(180 2625 4625)"><path fill="currentColor" d="M2000 4000h1250v1250H2000z" class="_board-fr4"/><use class="_board-cu" xlink:href="#_bottom-cu"/><defs><g id="_bottom-sm" fill="currentColor" stroke="currentColor"><use x="2219.7" y="4159.8" xlink:href="#tool-D70-pad-1307"/><use x="2219.7" y="4504.2" xlink:href="#tool-D70-pad-1307"/><use x="2925" y="5140" xlink:href="#tool-D71-pad-1308"/><use x="2925" y="5040" xlink:href="#tool-D71-pad-1308"/><use x="2825" y="5140" xlink:href="#tool-D71-pad-1308"/><use x="2825" y="5040" xlink:href="#tool-D71-pad-1308"/><use x="2725" y="5140" xlink:href="#tool-D71-pad-1308"/><use x="3025" y="5040" xlink:href="#tool-D71-pad-1308"/><use x="3025" y="5140" xlink:href="#tool-D71-pad-1308"/><use x="2725" y="5040" xlink:href="#tool-D72-pad-1309"/><use x="2330" y="5070" xlink:href="#tool-D73-pad-1310"/><use x="2480" y="5070" xlink:href="#tool-D73-pad-1310"/><use x="2125" y="5130" xlink:href="#tool-D74-pad-1311"/><use x="3130" y="4120" xlink:href="#tool-D74-pad-1311"/><use x="2550" y="4400" xlink:href="#tool-D75-pad-1312"/><use x="2550" y="4850" xlink:href="#tool-D75-pad-1312"/><use x="2700" y="4550" xlink:href="#tool-D75-pad-1312"/><use x="2700" y="4700" xlink:href="#tool-D75-pad-1312"/><use x="2700" y="4850" xlink:href="#tool-D75-pad-1312"/><use x="2550" y="4550" xlink:href="#tool-D75-pad-1312"/><use x="2550" y="4700" xlink:href="#tool-D75-pad-1312"/><use x="2700" y="4400" xlink:href="#tool-D75-pad-1312"/></g><mask id="_bottom-sm_mask" color="#000"><path fill="#fff" d="M2000 4000h1250v1250H2000z"/><use xlink:href="#_bottom-sm"/></mask><mask id="_bottom-cu_finish-mask" color="#fff"><use xlink:href="#_bottom-cu"/></mask></defs><g mask="url(#_bottom-sm_mask)"><path fill="currentColor" d="M2000 4000h1250v1250H2000z" class="_board-sm"/><g id="_bottom-ss" fill="currentColor" stroke="currentColor" class="_board-ss"><path fill="none" stroke-width="6" d="M2589 4934h-20 10v-30m-20 0v30h-15l-5-5v-10l5-5h15m-30 15l-5 5h-10l-5-5v-5l5-5-5-5v-5l5-5h10l5 5v5l-5 5 5 5v5m-5-10h-10m255-285h-20 10v-30m-20 0v30h-15l-5-5v-10l5-5h15m-30 20h-20v-5l20-20v-5m-117 180h-20 10v-30m-20 0v30h-15l-5-5v-10l5-5h15m-50 20l10-5 10-10v-10l-5-5h-10l-5 5v5l5 5h15m61-135h-20 10v-30m-20 0v30h-15l-5-5v-10l5-5h15m-50 20h20v-15l-10 5h-5l-5-5v-10l5-5h10l5 5m205 175h-20 10v-30m-20 0v30h-15l-5-5v-10l5-5h15m-45-10v30l15-15h-20m85 165h-20 10v-30m-20 0v30h-15l-5-5v-10l5-5h15m-30 15l-5 5h-10l-5-5v-5l5-5h5-5l-5-5v-5l5-5h10l5 5m61-425h-20 10v-30m-20 0v30h-15l-5-5v-10l5-5h15m-50-10h20l-20 20v5l5 5h10l5-5m-99 5h-20 10v-30m-20 0v30h-15l-5-5v-10l5-5h15m-30-10h-10 5v30l5-5m-150 121h-20 10v-30m-20 0v30h-15l-5-5v-10l5-5h15m-30 15l-5 5h-10l-5-5v-5l5-5h5-5l-5-5v-5l5-5h10l5 5m-60-5v30h-15l-5-5v-10l5-5h15m-10 0l-10-10m-10 30l-19.9-30m0 30l19.9-30m150 130h-20 10v-30m-20 0v30h-15l-5-5v-10l5-5h15m-30-10h-10 5v30l5-5m-55 5v-20l-10-10-10 10v20m-29.9-5l5 5h9.9l5-5v-20l-5-5h-9.9l-5 5m-30 20l5 5h10l5-5v-20l-5-5h-10l-5 5m194.9-25h-20 10v-30m-20 0v30h-15l-5-5v-10l5-5h15m-50-10h20l-20 20v5l5 5h10l5-5m-60 0l-5 5h-10l-5-5v-5l5-5h5-5l-5-5v-5l5-5h10l5 5m-30-5v5h-4.9v-5h4.9m-24.9 25l-5 5h-10l-5-5v-5l5-5h5-5l-5-5v-5l5-5h10l5 5m-30 25v-20l-10-10-10 10v20m224.9-100h-20 10v-30m-20 0v30h-15l-5-5v-10l5-5h15m-45-10v30l15-15h-20m-40 15h-20 10v-30m-20 30l-19.9-30m0 30l19.9-30m150-20h-20 10v-30m-20 0v30h-15l-5-5v-10l5-5h15m-50 20h20v-15l-10 5h-5l-5-5v-10l5-5h10l5 5m-60-5v30l-20-30v30m-10-30v30h-14.9l-5-5v-10l5-5h14.9m-9.9 0l-10-10m-30 25l5 5h10l5-5v-5l-5-5h-10l-5-5v-5l5-5h10l5 5m-30 25h-20 10v-30m219.9-20h-20 10v-30m-20 0v30h-15l-5-5v-10l5-5h15m-50 20l10-5 10-10v-10l-5-5h-10l-5 5v5l5 5h15m-60 15v-30h-15l-5 5v5l5 5h15-15l-5 5v5l5 5h15m-44.9 0h10l4.9-5v-20l-4.9-5h-10l-5 5v20l5 5m-30 0h10l5-5v-20l-5-5h-10l-5 5v20l5 5m-15 0h-20 10v-30m-20 25l-5 5h-10l-5-5v-20l5-5h10l5 5v20m239.9-45h-20 10v-30m-20 0v30h-15l-5-5v-10l5-5h15m-30 20h-20v-5l20-20v-5m-60 30v-25l-5-5h-10l-5 5v25m-10-30v20l-9.9 10-10-10v-20 15h19.9m-29.9-15v30h-15l-5-5v-10l5-5h15m-10 0l-10-10m-10 30h-20 10v-30m-40 30h20v-30h-20m20 15h-10m-20-15v30l-20-30v30m289.9-50h-20 10v-30m-20 0v30h-15l-5-5v-10l5-5h15m-30 15l-5 5h-10l-5-5v-5l5-5-5-5v-5l5-5h10l5 5v5l-5 5 5 5v5m-5-10h-10m-65 10l5 5h10l5-5v-20l-5-5h-10l-5 5v10h10m-20-15v30l-19.9-30v30m-10 0v-30h-15l-5 5v20l5 5h15m179.9 425h-20 10v-30m-40 30h20v-30h-20m20 15h-10m-40 10l5 5h10l5-5v-5l-5-5h-10l-5-5v-5l5-5h10l5 5m-30 25h-20 10v-30m-35 0v30h-15l-5-5v-10l5-5h15m-45 20h10l5-5v-20l-5-5h-10l-5 5v20l5 5m-15 0h-10 5v-30h5-10m-15 0v30l-20-30v30m-10 0h-20 10v-30m-39.9 25l5 5h9.9l5-5v-5l-5-5h-9.9l-5-5v-5l5-5h9.9l5 5"/><path fill="none" stroke-width="5.9" d="M2375 4300a25 25 0 0 1 25 25m-350 0a25 25 0 0 1 25-25m0 500a25 25 0 0 1-25-25m350 0a25 25 0 0 1-25 25m425 150a25 25 0 0 1-25 25m-300 0a25 25 0 0 1-25-25m325-650a25 25 0 0 1 25 25m-350 0a25 25 0 0 1 25-25m-75 25v450m-325-475h300m-325 25v450m25 25h300m100 175h300m-300-675h300m25 25v625m-350-625v625"/><path fill="none" stroke-width="7" d="M2956 4103h12.7l6.3-6.3v-25.4l-6.3-6.3H2956l-6.3 6.3v25.4l6.3 6.3m-44.3-6.3l6.3 6.3h12.7l6.3-6.3v-25.4l-6.3-6.3H2918l-6.3 6.3M2899 4103v-31.7l-6.3-6.3H2880l-6.3 6.3v31.7m-12.7 0v-38h-25.3m-12.7 38v-31.7l-6.3-6.3h-12.6l-6.4 6.3v31.7m-38-6.3l6.4 6.3h12.6l6.4-6.3v-6.4l-6.4-6.3h-12.6l-6.4-6.3v-6.4l6.4-6.3h12.6l6.4 6.3m-76 31.7h-25.3 12.6v-38m-25.3 0v38h-19l-6.3-6.3V4084l6.3-6.3h19m-12.7 0l-12.6-12.7m-12.7 0v25.3l-12.7 12.7-12.6-12.7V4065v19h25.3m-63.3 12.7l6.3 6.3h12.7l6.3-6.3v-25.4l-6.3-6.3h-12.7l-6.3 6.3m-12.7 31.7v-38 12.7l-25.3 25.3 19-19-19-19m-38 38h25.3v-38h-25.3m25.3 19h-12.6m-25.3-19v38h-19l-6.4-6.3V4084l6.4-6.3h19m-12.7 0l-12.7-12.7m-50.6 38v-25.3l-12.7-12.7-12.6 12.7v25.3m-38-38h25.3l-25.3 25.3v6.4l6.3 6.3h12.7l6.3-6.3m-101.3-31.7h25.3l-25.3 25.3v6.4l6.3 6.3h12.7l6.3-6.3m-38 0l-6.3 6.3h-12.7l-6.3-6.3v-25.4l6.3-6.3h12.7l6.3 6.3v25.4m-38-31.7h-12.6 6.3v38l6.3-6.3m-56.9-31.7h25.3l-25.3 25.3v6.4l6.3 6.3h12.7l6.3-6.3"/></g></g><use class="_board-cf" mask="url(#_bottom-cu_finish-mask)" xlink:href="#_bottom-sm"/><g id="_bottom-sp" fill="currentColor" stroke="currentColor" class="_board-sp"><use x="2550" y="4400" xlink:href="#tool-D47-pad-1218"/><use x="2550" y="4850" xlink:href="#tool-D47-pad-1218"/><use x="2700" y="4550" xlink:href="#tool-D47-pad-1218"/><use x="2700" y="4700" xlink:href="#tool-D47-pad-1218"/><use x="2700" y="4850" xlink:href="#tool-D47-pad-1218"/><use x="2550" y="4550" xlink:href="#tool-D47-pad-1218"/><use x="2550" y="4700" xlink:href="#tool-D47-pad-1218"/><use x="2700" y="4400" xlink:href="#tool-D47-pad-1218"/></g></g><style>._board-fr4{color:#4d542c}._board-cu{color:#d3d3d3}._board-cf{color:silver}._board-sm{color:#000;opacity:.9}._board-ss{color:#fff}._board-sp{color:silver;opacity:0}._board-out{color:#000}</style></svg>